<svg xmlns="http://www.w3.org/2000/svg" xmlns:xlink="http://www.w3.org/1999/xlink" width="300" zoomAndPan="magnify" viewBox="0 0 375 374.999991" height="250" preserveAspectRatio="xMidYMid meet" version="1.0"><defs><g/><clipPath id="28a7682b07"><path d="M 48 216 L 251.519531 216 L 251.519531 281.492188 L 48 281.492188 Z M 48 216 " clip-rule="nonzero"/></clipPath><clipPath id="5ac169e68e"><path d="M 0 94.113281 L 112 94.113281 L 112 240 L 0 240 Z M 0 94.113281 " clip-rule="nonzero"/></clipPath></defs><g clip-path="url(#28a7682b07)"><path fill="#ffffff" d="M 245.277344 248.183594 C 244.167969 247.539062 243.023438 246.941406 241.839844 246.40625 C 240.652344 245.875 239.429688 245.398438 238.171875 244.984375 C 238.019531 244.929688 237.859375 244.882812 237.699219 244.832031 C 237.542969 244.785156 237.382812 244.734375 237.226562 244.6875 C 237.066406 244.640625 236.90625 244.59375 236.746094 244.546875 C 236.585938 244.503906 236.425781 244.453125 236.261719 244.414062 C 235.941406 244.328125 235.617188 244.242188 235.289062 244.164062 C 235.125 244.125 234.960938 244.085938 234.796875 244.046875 C 234.632812 244.011719 234.46875 243.972656 234.304688 243.9375 L 234.058594 243.882812 C 233.972656 243.863281 233.890625 243.847656 233.808594 243.832031 C 233.640625 243.800781 233.476562 243.765625 233.308594 243.734375 C 233.140625 243.699219 232.972656 243.671875 232.804688 243.644531 C 232.636719 243.613281 232.46875 243.582031 232.300781 243.554688 C 232.132812 243.53125 231.960938 243.503906 231.792969 243.476562 L 231.539062 243.4375 L 231.28125 243.402344 C 231.113281 243.378906 230.941406 243.355469 230.769531 243.332031 C 230.597656 243.3125 230.425781 243.292969 230.253906 243.273438 C 229.914062 243.230469 229.566406 243.199219 229.21875 243.164062 C 229.046875 243.144531 228.871094 243.136719 228.695312 243.121094 C 228.519531 243.105469 228.347656 243.089844 228.171875 243.078125 C 227.996094 243.070312 227.820312 243.058594 227.644531 243.046875 L 227.382812 243.03125 L 227.117188 243.019531 C 226.941406 243.015625 226.761719 243.003906 226.585938 243 C 226.410156 242.996094 226.230469 242.988281 226.054688 242.984375 C 225.699219 242.972656 225.339844 242.972656 224.984375 242.96875 C 224.804688 242.964844 224.625 242.96875 224.445312 242.972656 C 224.265625 242.972656 224.085938 242.972656 223.90625 242.976562 C 223.726562 242.980469 223.542969 242.984375 223.363281 242.988281 L 223.09375 242.996094 L 222.820312 243.007812 C 222.640625 243.015625 222.457031 243.023438 222.277344 243.03125 C 222.09375 243.039062 221.910156 243.050781 221.730469 243.058594 C 220.269531 243.140625 218.792969 243.285156 217.304688 243.472656 C 215.816406 243.664062 214.316406 243.914062 212.808594 244.199219 C 212.617188 244.234375 212.429688 244.273438 212.242188 244.3125 C 212.050781 244.347656 211.863281 244.386719 211.671875 244.425781 C 211.484375 244.464844 211.292969 244.503906 211.105469 244.546875 L 210.820312 244.605469 L 210.535156 244.667969 C 210.34375 244.710938 210.15625 244.753906 209.964844 244.792969 C 209.773438 244.839844 209.585938 244.882812 209.394531 244.925781 C 209.015625 245.015625 208.632812 245.109375 208.25 245.203125 C 206.722656 245.578125 205.1875 245.996094 203.648438 246.445312 C 202.109375 246.898438 200.5625 247.386719 199.015625 247.902344 C 197.464844 248.421875 195.910156 248.96875 194.347656 249.539062 C 192.789062 250.113281 191.226562 250.707031 189.660156 251.324219 C 188.09375 251.945312 186.523438 252.582031 184.949219 253.234375 C 178.648438 255.84375 172.292969 258.710938 165.855469 261.53125 C 162.636719 262.941406 159.398438 264.339844 156.140625 265.679688 C 152.878906 267.019531 149.597656 268.300781 146.292969 269.464844 C 145.882812 269.613281 145.46875 269.753906 145.054688 269.898438 C 144.640625 270.035156 144.226562 270.179688 143.816406 270.3125 C 142.988281 270.589844 142.15625 270.851562 141.328125 271.113281 C 141.121094 271.175781 140.914062 271.238281 140.707031 271.300781 C 140.496094 271.363281 140.289062 271.425781 140.078125 271.488281 C 139.871094 271.550781 139.660156 271.613281 139.453125 271.675781 C 139.242188 271.738281 139.035156 271.796875 138.824219 271.859375 C 138.40625 271.984375 137.988281 272.101562 137.570312 272.222656 C 137.152344 272.34375 136.734375 272.460938 136.316406 272.582031 C 132.960938 273.519531 129.59375 274.378906 126.214844 275.136719 C 122.835938 275.894531 119.445312 276.550781 116.054688 277.085938 C 112.660156 277.621094 109.265625 278.035156 105.878906 278.296875 C 102.945312 278.53125 100.035156 278.644531 97.164062 278.636719 C 94.296875 278.625 91.464844 278.492188 88.6875 278.214844 C 85.90625 277.941406 83.175781 277.527344 80.515625 276.960938 C 77.851562 276.402344 75.253906 275.683594 72.738281 274.8125 C 71.480469 274.375 70.242188 273.902344 69.023438 273.386719 C 68.722656 273.257812 68.417969 273.125 68.117188 272.996094 C 67.816406 272.859375 67.519531 272.722656 67.21875 272.585938 C 66.621094 272.308594 66.03125 272.023438 65.453125 271.722656 C 63.128906 270.527344 60.925781 269.136719 58.933594 267.476562 C 56.945312 265.816406 55.171875 263.882812 53.746094 261.625 C 53.703125 261.554688 53.65625 261.484375 53.613281 261.414062 L 53.484375 261.199219 C 53.398438 261.054688 53.308594 260.914062 53.230469 260.765625 C 53.144531 260.617188 53.066406 260.472656 52.980469 260.324219 L 52.746094 259.875 C 52.667969 259.726562 52.59375 259.574219 52.519531 259.421875 L 52.40625 259.191406 C 52.367188 259.113281 52.335938 259.035156 52.300781 258.957031 L 52.089844 258.492188 L 51.894531 258.015625 C 51.644531 257.375 51.410156 256.71875 51.222656 256.039062 L 51.148438 255.785156 L 51.015625 255.269531 C 50.992188 255.183594 50.96875 255.097656 50.953125 255.007812 L 50.835938 254.484375 C 50.8125 254.398438 50.800781 254.308594 50.78125 254.21875 L 50.730469 253.953125 C 50.601562 253.242188 50.496094 252.515625 50.429688 251.777344 C 50.421875 251.683594 50.410156 251.59375 50.402344 251.5 L 50.386719 251.222656 L 50.367188 250.941406 L 50.355469 250.800781 L 50.351562 250.660156 L 50.328125 250.097656 L 50.320312 249.53125 C 50.316406 249.339844 50.324219 249.148438 50.324219 248.960938 C 50.328125 248.765625 50.328125 248.578125 50.339844 248.382812 C 50.347656 248.191406 50.351562 248 50.363281 247.808594 C 50.375 247.617188 50.386719 247.425781 50.402344 247.230469 C 50.460938 246.460938 50.550781 245.679688 50.667969 244.902344 C 51.144531 241.785156 52.109375 238.652344 53.457031 235.691406 C 54.804688 232.726562 56.539062 229.933594 58.550781 227.472656 C 60.5625 225.007812 62.847656 222.875 65.273438 221.195312 C 67.699219 219.507812 70.265625 218.28125 72.8125 217.546875 L 72.933594 217.511719 L 73.054688 217.480469 L 73.292969 217.417969 C 73.453125 217.378906 73.609375 217.335938 73.769531 217.296875 C 73.929688 217.261719 74.085938 217.226562 74.246094 217.191406 L 74.484375 217.140625 C 74.566406 217.121094 74.644531 217.109375 74.722656 217.09375 C 75.039062 217.039062 75.355469 216.976562 75.671875 216.9375 C 75.828125 216.917969 75.984375 216.894531 76.144531 216.875 C 76.300781 216.859375 76.457031 216.84375 76.613281 216.828125 C 76.925781 216.789062 77.238281 216.777344 77.546875 216.757812 C 77.703125 216.746094 77.859375 216.746094 78.011719 216.742188 C 78.167969 216.738281 78.320312 216.734375 78.472656 216.734375 C 78.628906 216.734375 78.78125 216.738281 78.933594 216.742188 L 79.164062 216.746094 L 79.277344 216.75 L 79.390625 216.757812 C 79.542969 216.765625 79.691406 216.777344 79.84375 216.785156 C 79.917969 216.789062 79.996094 216.792969 80.070312 216.800781 L 80.292969 216.824219 C 81.492188 216.9375 82.65625 217.167969 83.773438 217.5 C 84.890625 217.835938 85.960938 218.277344 86.976562 218.816406 C 87.230469 218.949219 87.476562 219.097656 87.722656 219.242188 C 87.851562 219.3125 87.96875 219.390625 88.089844 219.46875 C 88.210938 219.546875 88.332031 219.621094 88.453125 219.699219 C 88.574219 219.777344 88.691406 219.863281 88.804688 219.945312 L 88.980469 220.070312 C 89.042969 220.109375 89.101562 220.152344 89.15625 220.195312 C 89.269531 220.285156 89.386719 220.371094 89.5 220.460938 L 89.667969 220.589844 C 89.726562 220.632812 89.78125 220.683594 89.835938 220.726562 C 90.726562 221.460938 91.546875 222.285156 92.289062 223.1875 C 90.726562 221.113281 88.761719 219.417969 86.496094 218.214844 C 86.355469 218.140625 86.214844 218.066406 86.070312 217.988281 C 85.925781 217.917969 85.78125 217.855469 85.632812 217.785156 C 85.34375 217.640625 85.042969 217.523438 84.746094 217.398438 C 84.707031 217.382812 84.671875 217.367188 84.632812 217.355469 L 84.519531 217.3125 L 84.289062 217.226562 L 84.0625 217.140625 L 83.945312 217.101562 L 83.832031 217.0625 C 83.519531 216.964844 83.210938 216.859375 82.890625 216.777344 L 82.652344 216.710938 L 82.476562 216.664062 L 82.414062 216.648438 C 82.253906 216.613281 82.089844 216.578125 81.929688 216.539062 C 81.847656 216.523438 81.769531 216.503906 81.6875 216.488281 L 81.441406 216.441406 C 81.277344 216.410156 81.113281 216.382812 80.949219 216.351562 C 80.78125 216.328125 80.617188 216.304688 80.449219 216.28125 L 80.199219 216.246094 L 79.945312 216.222656 C 79.777344 216.207031 79.605469 216.1875 79.4375 216.171875 C 79.265625 216.160156 79.09375 216.152344 78.925781 216.140625 L 78.667969 216.128906 C 78.582031 216.125 78.496094 216.125 78.40625 216.121094 C 78.234375 216.121094 78.0625 216.117188 77.886719 216.117188 C 77.710938 216.117188 77.539062 216.125 77.363281 216.125 L 77.101562 216.132812 L 76.835938 216.148438 C 76.65625 216.160156 76.480469 216.171875 76.304688 216.183594 C 76.214844 216.1875 76.125 216.203125 76.035156 216.210938 L 75.769531 216.238281 C 75.414062 216.269531 75.054688 216.332031 74.695312 216.382812 C 74.605469 216.394531 74.515625 216.414062 74.421875 216.429688 L 74.152344 216.480469 L 73.878906 216.53125 C 73.835938 216.542969 73.789062 216.550781 73.746094 216.558594 L 73.609375 216.589844 C 73.425781 216.632812 73.246094 216.675781 73.0625 216.714844 C 73.019531 216.726562 72.972656 216.734375 72.925781 216.746094 L 72.789062 216.785156 L 72.242188 216.933594 L 72.105469 216.96875 L 71.96875 217.011719 C 71.789062 217.070312 71.605469 217.125 71.421875 217.183594 L 71.285156 217.226562 L 71.148438 217.273438 L 70.597656 217.46875 L 70.460938 217.519531 C 70.414062 217.535156 70.371094 217.554688 70.324219 217.570312 C 70.140625 217.644531 69.957031 217.714844 69.777344 217.785156 C 69.59375 217.859375 69.410156 217.941406 69.230469 218.019531 C 69.136719 218.058594 69.046875 218.097656 68.953125 218.140625 L 68.683594 218.265625 L 68.410156 218.394531 L 68.273438 218.457031 L 68.136719 218.527344 C 67.953125 218.617188 67.773438 218.707031 67.59375 218.796875 C 67.410156 218.894531 67.230469 218.992188 67.050781 219.089844 C 66.867188 219.183594 66.691406 219.289062 66.511719 219.394531 L 66.238281 219.546875 C 66.148438 219.601562 66.0625 219.65625 65.972656 219.710938 C 65.257812 220.140625 64.550781 220.617188 63.855469 221.121094 C 63.160156 221.628906 62.472656 222.171875 61.804688 222.753906 C 61.132812 223.332031 60.476562 223.941406 59.839844 224.582031 C 59.203125 225.230469 58.582031 225.90625 57.980469 226.609375 L 57.757812 226.871094 C 57.683594 226.960938 57.609375 227.046875 57.535156 227.140625 C 57.390625 227.320312 57.246094 227.5 57.097656 227.683594 C 56.957031 227.867188 56.8125 228.050781 56.667969 228.234375 C 56.597656 228.328125 56.527344 228.421875 56.460938 228.515625 L 56.25 228.800781 C 55.695312 229.558594 55.164062 230.339844 54.660156 231.140625 C 54.152344 231.945312 53.679688 232.773438 53.230469 233.617188 C 52.78125 234.460938 52.359375 235.324219 51.972656 236.203125 C 51.585938 237.082031 51.230469 237.972656 50.910156 238.878906 C 50.585938 239.78125 50.296875 240.695312 50.050781 241.617188 C 49.800781 242.535156 49.585938 243.460938 49.414062 244.390625 L 49.347656 244.738281 L 49.316406 244.914062 C 49.308594 244.96875 49.296875 245.03125 49.289062 245.085938 C 49.253906 245.320312 49.214844 245.550781 49.179688 245.78125 C 49.152344 246.015625 49.121094 246.25 49.089844 246.480469 C 49.058594 246.710938 49.039062 246.945312 49.011719 247.175781 C 48.921875 248.101562 48.867188 249.023438 48.859375 249.9375 L 48.859375 250.277344 C 48.859375 250.394531 48.855469 250.507812 48.859375 250.621094 C 48.867188 250.847656 48.871094 251.074219 48.878906 251.300781 C 48.890625 251.527344 48.902344 251.75 48.914062 251.976562 C 48.917969 252.085938 48.925781 252.199219 48.9375 252.308594 L 48.964844 252.644531 C 49.042969 253.535156 49.164062 254.410156 49.328125 255.265625 C 49.488281 256.117188 49.703125 256.949219 49.949219 257.757812 C 50.070312 258.164062 50.210938 258.558594 50.351562 258.953125 C 50.425781 259.148438 50.5 259.339844 50.578125 259.535156 C 50.613281 259.632812 50.65625 259.726562 50.695312 259.820312 L 50.816406 260.105469 C 51.148438 260.859375 51.511719 261.582031 51.902344 262.28125 C 52.6875 263.679688 53.597656 264.96875 54.59375 266.15625 C 55.597656 267.34375 56.6875 268.421875 57.847656 269.410156 C 59.011719 270.394531 60.238281 271.289062 61.511719 272.105469 C 62.785156 272.921875 64.109375 273.660156 65.464844 274.34375 C 65.636719 274.425781 65.804688 274.511719 65.976562 274.59375 C 66.148438 274.679688 66.320312 274.757812 66.492188 274.835938 C 66.660156 274.917969 66.832031 275 67.003906 275.082031 C 67.175781 275.160156 67.351562 275.238281 67.523438 275.316406 C 67.699219 275.394531 67.871094 275.46875 68.046875 275.550781 C 68.21875 275.625 68.394531 275.699219 68.570312 275.773438 C 68.746094 275.847656 68.921875 275.921875 69.097656 275.996094 C 69.273438 276.070312 69.449219 276.140625 69.628906 276.210938 C 71.042969 276.785156 72.492188 277.304688 73.964844 277.773438 C 76.90625 278.707031 79.953125 279.441406 83.078125 279.976562 C 86.203125 280.511719 89.40625 280.855469 92.671875 281.019531 C 95.933594 281.183594 99.253906 281.167969 102.613281 281 C 105.976562 280.832031 109.378906 280.503906 112.808594 280.039062 C 116.238281 279.574219 119.699219 278.96875 123.179688 278.242188 C 126.199219 277.613281 129.210938 276.898438 132.210938 276.109375 C 133.710938 275.714844 135.207031 275.304688 136.699219 274.875 C 137.074219 274.765625 137.449219 274.65625 137.820312 274.550781 L 138.378906 274.382812 L 138.9375 274.21875 C 139.3125 274.105469 139.683594 273.996094 140.054688 273.878906 C 140.429688 273.769531 140.800781 273.65625 141.171875 273.535156 C 141.921875 273.304688 142.664062 273.0625 143.410156 272.8125 C 144.152344 272.5625 144.898438 272.3125 145.636719 272.046875 C 147.121094 271.523438 148.597656 270.976562 150.066406 270.40625 C 151.535156 269.839844 153 269.253906 154.457031 268.65625 C 155.917969 268.054688 157.371094 267.441406 158.816406 266.816406 C 161.707031 265.570312 164.578125 264.289062 167.429688 262.996094 C 170.277344 261.703125 173.109375 260.417969 175.929688 259.136719 C 178.746094 257.863281 181.542969 256.605469 184.332031 255.394531 C 187.117188 254.183594 189.890625 253.019531 192.652344 251.921875 C 195.414062 250.828125 198.160156 249.800781 200.894531 248.875 C 203.625 247.945312 206.34375 247.117188 209.042969 246.414062 C 211.738281 245.714844 214.414062 245.136719 217.058594 244.726562 C 218.378906 244.519531 219.691406 244.351562 220.992188 244.230469 L 221.238281 244.207031 L 221.480469 244.1875 C 221.644531 244.171875 221.804688 244.160156 221.96875 244.144531 C 222.292969 244.121094 222.613281 244.101562 222.9375 244.078125 C 223.257812 244.0625 223.582031 244.042969 223.902344 244.027344 C 224.0625 244.023438 224.222656 244.015625 224.382812 244.011719 L 224.625 244 L 224.863281 243.996094 C 226.140625 243.964844 227.402344 243.980469 228.652344 244.046875 C 228.808594 244.050781 228.964844 244.0625 229.117188 244.070312 C 229.273438 244.082031 229.429688 244.09375 229.582031 244.101562 C 229.894531 244.125 230.203125 244.152344 230.511719 244.179688 C 230.816406 244.210938 231.125 244.238281 231.429688 244.273438 C 231.582031 244.292969 231.734375 244.3125 231.886719 244.332031 L 232.113281 244.359375 L 232.339844 244.390625 C 234.761719 244.722656 237.105469 245.261719 239.347656 246 C 241.585938 246.738281 243.722656 247.683594 245.742188 248.804688 C 247.765625 249.925781 249.667969 251.222656 251.453125 252.664062 C 249.554688 250.988281 247.496094 249.480469 245.277344 248.183594 " fill-opacity="1" fill-rule="nonzero"/></g><g clip-path="url(#5ac169e68e)"><path fill="#ffffff" d="M 32.757812 144.839844 C 32.757812 144.839844 44.796875 152.96875 56.242188 144.980469 C 56.242188 144.980469 42.152344 145.808594 32.757812 144.839844 Z M 44.640625 162.707031 C 44.917969 162.84375 45.324219 163.039062 45.835938 163.265625 C 46.355469 163.488281 46.972656 163.75 47.683594 164.015625 C 47.863281 164.082031 48.046875 164.148438 48.234375 164.21875 C 48.417969 164.289062 48.609375 164.359375 48.804688 164.425781 C 49.199219 164.566406 49.605469 164.707031 50.035156 164.84375 C 50.890625 165.113281 51.808594 165.367188 52.777344 165.585938 C 52.898438 165.609375 53.019531 165.636719 53.140625 165.664062 C 53.261719 165.6875 53.382812 165.714844 53.507812 165.742188 C 53.753906 165.792969 54 165.839844 54.246094 165.882812 C 54.746094 165.972656 55.253906 166.046875 55.765625 166.105469 C 56.792969 166.21875 57.84375 166.265625 58.894531 166.214844 C 59.945312 166.164062 61 166.011719 62.027344 165.738281 C 61.839844 165.695312 61.652344 165.652344 61.464844 165.609375 L 60.902344 165.488281 L 59.78125 165.242188 C 59.03125 165.082031 58.289062 164.921875 57.542969 164.769531 C 56.796875 164.613281 56.058594 164.460938 55.3125 164.3125 C 54.566406 164.171875 53.820312 164.03125 53.078125 163.898438 C 52.335938 163.761719 51.59375 163.632812 50.851562 163.5 L 49.746094 163.3125 C 49.5625 163.28125 49.375 163.25 49.191406 163.21875 L 48.632812 163.132812 C 47.152344 162.90625 45.675781 162.691406 44.210938 162.488281 C 44.210938 162.488281 44.363281 162.570312 44.640625 162.707031 Z M 105.609375 232.722656 C 105.855469 233.105469 106.371094 233.3125 106.867188 233.226562 C 107.683594 233.082031 108.101562 232.292969 107.6875 231.65625 C 107.441406 231.273438 106.925781 231.066406 106.429688 231.152344 C 105.613281 231.292969 105.199219 232.085938 105.609375 232.722656 Z M 0.117188 98.105469 C 0.136719 97.996094 0.191406 97.882812 0.273438 97.78125 C 0.359375 97.679688 0.472656 97.585938 0.617188 97.511719 C 1.480469 97.070312 2.378906 96.679688 3.304688 96.339844 L 3.480469 96.273438 C 3.539062 96.25 3.601562 96.230469 3.664062 96.210938 L 4.03125 96.085938 L 4.398438 95.96875 C 4.460938 95.945312 4.519531 95.929688 4.582031 95.910156 L 4.761719 95.855469 C 5.003906 95.78125 5.25 95.710938 5.496094 95.640625 C 5.734375 95.570312 5.972656 95.507812 6.214844 95.445312 C 8.148438 94.9375 10.066406 94.59375 11.976562 94.390625 C 13.890625 94.183594 15.792969 94.113281 17.683594 94.15625 C 18.15625 94.167969 18.628906 94.183594 19.101562 94.207031 C 19.566406 94.238281 20.035156 94.269531 20.503906 94.304688 C 20.980469 94.339844 21.433594 94.390625 21.898438 94.441406 L 22.597656 94.523438 L 22.945312 94.566406 L 23.289062 94.617188 C 23.289062 94.617188 23.488281 94.636719 23.859375 94.699219 C 24.046875 94.734375 24.277344 94.777344 24.550781 94.832031 C 24.691406 94.863281 24.835938 94.894531 24.992188 94.929688 C 25.148438 94.96875 25.3125 95.011719 25.484375 95.058594 C 26.171875 95.25 27.027344 95.503906 27.964844 95.882812 C 28.203125 95.976562 28.445312 96.074219 28.699219 96.179688 C 28.824219 96.230469 28.953125 96.285156 29.082031 96.34375 C 29.207031 96.402344 29.332031 96.460938 29.464844 96.523438 C 29.980469 96.769531 30.523438 97.042969 31.089844 97.347656 C 31.640625 97.660156 32.214844 98.003906 32.800781 98.382812 C 33.101562 98.570312 33.382812 98.773438 33.679688 98.980469 C 33.972656 99.191406 34.269531 99.410156 34.570312 99.636719 C 34.71875 99.75 34.871094 99.867188 35.019531 99.980469 C 35.167969 100.101562 35.3125 100.226562 35.464844 100.347656 C 35.757812 100.597656 36.054688 100.855469 36.355469 101.121094 C 36.503906 101.257812 36.652344 101.394531 36.800781 101.53125 C 36.839844 101.566406 36.878906 101.597656 36.914062 101.636719 C 36.953125 101.667969 36.988281 101.703125 37.023438 101.742188 C 37.097656 101.8125 37.167969 101.882812 37.242188 101.957031 C 37.535156 102.246094 37.824219 102.546875 38.117188 102.855469 C 38.707031 103.464844 39.257812 104.136719 39.816406 104.839844 C 39.953125 105.011719 40.09375 105.191406 40.230469 105.371094 C 40.300781 105.460938 40.367188 105.550781 40.433594 105.644531 C 40.5 105.734375 40.566406 105.828125 40.632812 105.921875 C 40.898438 106.296875 41.15625 106.683594 41.414062 107.074219 C 41.542969 107.273438 41.671875 107.472656 41.796875 107.675781 C 41.863281 107.773438 41.925781 107.875 41.988281 107.976562 C 42.046875 108.082031 42.109375 108.1875 42.167969 108.289062 C 42.410156 108.707031 42.644531 109.132812 42.875 109.570312 C 42.992188 109.789062 43.105469 110.007812 43.21875 110.234375 C 43.273438 110.34375 43.332031 110.457031 43.386719 110.570312 C 43.441406 110.683594 43.492188 110.796875 43.542969 110.910156 C 43.757812 111.371094 43.960938 111.84375 44.160156 112.320312 C 44.160156 112.320312 44.222656 112.148438 44.226562 111.722656 C 44.230469 111.511719 44.21875 111.230469 44.171875 110.878906 C 44.152344 110.707031 44.121094 110.511719 44.082031 110.296875 C 44.0625 110.191406 44.039062 110.078125 44.011719 109.960938 C 44 109.902344 43.988281 109.839844 43.972656 109.78125 C 43.957031 109.71875 43.941406 109.65625 43.925781 109.59375 C 43.789062 109.085938 43.601562 108.496094 43.347656 107.804688 C 43.214844 107.460938 43.070312 107.089844 42.898438 106.695312 C 42.726562 106.304688 42.527344 105.886719 42.304688 105.445312 C 42.082031 105 41.835938 104.527344 41.558594 104.027344 C 41.273438 103.535156 40.953125 103.011719 40.605469 102.460938 C 40.433594 102.183594 40.25 101.902344 40.058594 101.609375 C 39.863281 101.324219 39.652344 101.027344 39.433594 100.726562 C 39.21875 100.421875 38.992188 100.113281 38.753906 99.792969 C 38.636719 99.636719 38.515625 99.472656 38.390625 99.3125 C 38.261719 99.148438 38.128906 98.988281 37.996094 98.820312 L 38.472656 99.027344 C 38.554688 99.058594 38.632812 99.09375 38.710938 99.128906 L 38.941406 99.234375 L 39.867188 99.664062 L 40.796875 100.105469 C 40.953125 100.175781 41.101562 100.253906 41.253906 100.328125 L 41.703125 100.558594 L 42.605469 101.023438 L 43.054688 101.261719 L 43.28125 101.378906 C 43.359375 101.417969 43.433594 101.457031 43.503906 101.5 C 44.089844 101.824219 44.671875 102.152344 45.253906 102.488281 L 45.691406 102.738281 L 45.90625 102.863281 L 46.121094 102.992188 L 46.964844 103.515625 L 47.8125 104.042969 C 48.09375 104.21875 48.378906 104.394531 48.648438 104.578125 C 49.191406 104.941406 49.734375 105.308594 50.28125 105.679688 L 50.890625 106.101562 L 51.085938 106.242188 L 51.875 106.816406 C 56.078125 109.886719 59.882812 113.273438 63.304688 116.828125 C 63.378906 116.898438 63.449219 116.972656 63.515625 117.046875 L 63.71875 117.269531 C 63.855469 117.421875 63.988281 117.570312 64.121094 117.722656 C 64.382812 118.027344 64.640625 118.332031 64.890625 118.644531 C 65.144531 118.960938 65.386719 119.273438 65.625 119.597656 C 65.683594 119.675781 65.742188 119.757812 65.796875 119.839844 L 65.964844 120.082031 C 66.074219 120.246094 66.183594 120.410156 66.292969 120.578125 C 66.71875 121.238281 67.121094 121.914062 67.492188 122.597656 L 67.628906 122.859375 C 67.675781 122.945312 67.714844 123.03125 67.757812 123.117188 C 67.84375 123.292969 67.925781 123.464844 68.007812 123.644531 C 68.167969 123.992188 68.324219 124.347656 68.46875 124.699219 C 68.617188 125.054688 68.753906 125.414062 68.882812 125.773438 C 68.949219 125.953125 69.011719 126.132812 69.074219 126.3125 C 69.105469 126.402344 69.136719 126.492188 69.164062 126.582031 L 69.246094 126.855469 C 69.460938 127.582031 69.644531 128.316406 69.789062 129.054688 C 69.867188 129.421875 69.929688 129.789062 69.988281 130.160156 C 70.015625 130.34375 70.042969 130.527344 70.066406 130.714844 C 70.089844 130.898438 70.109375 131.085938 70.125 131.269531 C 70.191406 132.015625 70.226562 132.757812 70.226562 133.5 C 70.226562 133.949219 70.21875 134.390625 70.203125 134.820312 C 70.195312 135.039062 70.1875 135.25 70.175781 135.460938 C 70.175781 135.511719 70.171875 135.566406 70.171875 135.617188 C 70.167969 135.671875 70.160156 135.722656 70.160156 135.773438 C 70.152344 135.878906 70.140625 135.980469 70.136719 136.085938 C 70.066406 136.902344 69.96875 137.667969 69.84375 138.363281 C 69.585938 139.75 69.207031 140.847656 68.667969 141.496094 C 68.667969 141.496094 68.828125 141.417969 69.113281 141.140625 C 69.394531 140.863281 69.804688 140.390625 70.296875 139.585938 C 70.789062 138.785156 71.371094 137.660156 71.988281 136.066406 C 72.140625 135.664062 72.296875 135.238281 72.457031 134.78125 C 72.609375 134.320312 72.773438 133.828125 72.925781 133.304688 C 73.230469 132.257812 73.535156 131.070312 73.828125 129.730469 C 77.789062 135.441406 81.078125 141.265625 83.828125 146.996094 C 86.578125 152.726562 88.789062 158.363281 90.597656 163.742188 C 90.75 164.195312 90.890625 164.648438 91.019531 165.105469 C 91.144531 165.566406 91.269531 166.023438 91.363281 166.488281 C 91.5625 167.414062 91.710938 168.347656 91.808594 169.28125 C 91.859375 169.75 91.894531 170.21875 91.925781 170.6875 C 91.9375 170.921875 91.945312 171.15625 91.953125 171.390625 C 91.957031 171.507812 91.957031 171.625 91.957031 171.742188 L 91.957031 172.09375 C 91.945312 173.03125 91.886719 173.96875 91.78125 174.902344 C 91.691406 175.632812 91.597656 176.34375 91.484375 177.019531 C 91.429688 177.359375 91.371094 177.6875 91.308594 178.003906 C 91.242188 178.324219 91.171875 178.632812 91.101562 178.925781 C 90.808594 180.105469 90.460938 181.070312 90.046875 181.6875 C 90.046875 181.6875 90.503906 181.101562 91.226562 179.992188 C 91.585938 179.441406 92.015625 178.757812 92.488281 177.953125 C 92.605469 177.75 92.726562 177.542969 92.847656 177.324219 C 92.96875 177.109375 93.09375 176.886719 93.214844 176.65625 C 93.46875 176.191406 93.722656 175.703125 93.984375 175.179688 C 94.363281 176.589844 94.683594 177.976562 94.996094 179.328125 C 95.152344 180.003906 95.304688 180.671875 95.453125 181.332031 C 95.523438 181.660156 95.597656 181.988281 95.667969 182.3125 C 95.734375 182.636719 95.800781 182.960938 95.867188 183.285156 C 96.128906 184.570312 96.371094 185.820312 96.597656 187.03125 C 96.65625 187.332031 96.714844 187.632812 96.769531 187.929688 C 96.78125 188.003906 96.796875 188.082031 96.8125 188.15625 C 96.824219 188.226562 96.835938 188.300781 96.847656 188.378906 C 96.871094 188.527344 96.898438 188.671875 96.921875 188.820312 C 97.023438 189.40625 97.117188 189.984375 97.210938 190.550781 C 97.394531 191.6875 97.566406 192.777344 97.722656 193.828125 C 97.746094 193.960938 97.761719 194.089844 97.785156 194.21875 C 97.800781 194.347656 97.816406 194.480469 97.835938 194.609375 C 97.871094 194.867188 97.90625 195.121094 97.9375 195.371094 C 98.003906 195.875 98.066406 196.371094 98.128906 196.847656 C 98.25 197.8125 98.359375 198.726562 98.457031 199.59375 C 98.484375 199.808594 98.507812 200.023438 98.53125 200.234375 C 98.558594 200.445312 98.578125 200.652344 98.597656 200.855469 C 98.636719 201.265625 98.675781 201.664062 98.710938 202.046875 C 98.71875 202.113281 98.734375 202.175781 98.757812 202.238281 L 99.824219 204.984375 L 100.488281 206.703125 L 100.875 207.734375 L 102.421875 211.871094 L 102.808594 212.902344 L 102.929688 213.25 L 104.042969 216.335938 L 103.988281 216.359375 C 104.132812 216.753906 104.277344 217.148438 104.421875 217.546875 C 104.894531 218.859375 105.351562 220.160156 105.789062 221.445312 C 105.898438 221.765625 106.003906 222.085938 106.113281 222.40625 C 106.214844 222.722656 106.316406 223.042969 106.417969 223.359375 C 106.621094 223.996094 106.820312 224.628906 107.015625 225.253906 C 107.171875 225.757812 107.324219 226.261719 107.472656 226.765625 L 111.683594 239.042969 C 111.777344 239.316406 111.375 239.507812 111.167969 239.285156 C 108.847656 236.761719 104.121094 233.679688 102.789062 232.832031 C 102.632812 232.734375 102.65625 232.523438 102.828125 232.445312 C 104.003906 231.917969 104.910156 231.085938 105.59375 230.214844 C 104.058594 225.84375 102.53125 221.632812 101.023438 217.582031 L 100.992188 217.59375 L 99.9375 214.726562 C 99.675781 214.003906 99.394531 213.285156 99.121094 212.566406 L 98.296875 210.40625 L 97.472656 208.25 C 97.335938 207.886719 97.191406 207.53125 97.046875 207.171875 L 96.621094 206.097656 L 95.769531 203.945312 L 95.34375 202.871094 L 95.128906 202.335938 L 95.023438 202.066406 L 94.910156 201.796875 L 93.148438 197.515625 L 92.707031 196.445312 L 92.25 195.378906 L 91.339844 193.246094 L 90.425781 191.113281 C 90.351562 190.9375 90.273438 190.757812 90.195312 190.582031 L 89.957031 190.050781 L 89.488281 188.992188 L 88.542969 186.871094 L 88.074219 185.808594 C 87.914062 185.457031 87.75 185.105469 87.585938 184.753906 L 85.632812 180.53125 L 83.617188 176.335938 C 80.890625 170.75 78.007812 165.222656 74.921875 159.777344 C 74.167969 158.410156 73.359375 157.066406 72.570312 155.710938 L 71.976562 154.699219 L 71.898438 154.570312 L 71.824219 154.445312 L 71.667969 154.195312 L 71.363281 153.691406 L 70.132812 151.679688 L 69.824219 151.175781 C 69.722656 151.011719 69.625 150.839844 69.515625 150.675781 L 68.878906 149.679688 L 67.613281 147.6875 L 67.453125 147.4375 L 67.375 147.3125 L 67.292969 147.191406 L 66.964844 146.699219 L 65.652344 144.722656 L 65.160156 143.984375 C 65.105469 143.902344 65.050781 143.820312 64.992188 143.738281 L 63.636719 141.789062 L 62.960938 140.8125 C 62.730469 140.488281 62.496094 140.167969 62.261719 139.84375 L 60.863281 137.917969 L 60.6875 137.675781 L 60.148438 136.960938 L 58.703125 135.054688 L 58.519531 134.820312 C 58.460938 134.738281 58.398438 134.660156 58.335938 134.582031 L 57.964844 134.113281 L 56.46875 132.234375 C 56.410156 132.152344 56.347656 132.074219 56.28125 132 L 56.089844 131.765625 L 55.707031 131.304688 L 54.9375 130.378906 L 54.164062 129.449219 L 52.578125 127.628906 L 52.179688 127.171875 C 52.113281 127.097656 52.046875 127.019531 51.980469 126.945312 L 51.773438 126.722656 L 50.132812 124.929688 L 49.929688 124.707031 C 49.859375 124.632812 49.785156 124.558594 49.71875 124.484375 L 49.296875 124.046875 L 48.449219 123.167969 L 48.027344 122.726562 L 47.816406 122.507812 C 47.746094 122.4375 47.671875 122.363281 47.597656 122.292969 L 46.726562 121.429688 C 44.398438 119.132812 41.957031 116.917969 39.367188 114.820312 L 39.535156 114.960938 C 39.59375 115.007812 39.648438 115.050781 39.703125 115.101562 L 40.035156 115.390625 L 41.359375 116.542969 L 41.527344 116.6875 L 41.609375 116.757812 L 41.691406 116.835938 L 42.011719 117.128906 L 43.296875 118.3125 L 43.617188 118.609375 L 43.925781 118.910156 L 44.550781 119.515625 L 45.171875 120.121094 L 45.484375 120.425781 C 45.535156 120.476562 45.589844 120.527344 45.640625 120.578125 L 45.789062 120.730469 L 46.996094 121.964844 L 47.601562 122.585938 C 47.796875 122.792969 47.988281 123.003906 48.1875 123.214844 L 49.355469 124.476562 C 52.4375 127.855469 55.300781 131.367188 57.988281 134.96875 C 60.679688 138.566406 63.195312 142.257812 65.582031 146 L 66.476562 147.402344 L 66.699219 147.753906 L 66.917969 148.109375 L 67.351562 148.816406 L 68.21875 150.234375 L 68.863281 151.300781 L 69.074219 151.65625 L 70.75 154.515625 L 70.957031 154.875 L 71.058594 155.050781 L 71.164062 155.230469 L 71.566406 155.953125 L 72.375 157.394531 L 73.179688 158.835938 C 73.25 158.957031 73.3125 159.078125 73.378906 159.199219 L 73.574219 159.5625 L 73.964844 160.285156 C 74.484375 161.253906 75.007812 162.222656 75.523438 163.191406 L 77.03125 166.117188 L 77.410156 166.847656 C 77.535156 167.089844 77.664062 167.332031 77.78125 167.578125 L 79.242188 170.523438 L 79.605469 171.257812 L 79.875 171.808594 L 79.964844 171.996094 L 82.074219 176.4375 L 84.113281 180.902344 L 84.285156 181.273438 C 84.339844 181.398438 84.394531 181.523438 84.449219 181.648438 L 84.777344 182.394531 L 86.089844 185.386719 C 86.308594 185.886719 86.53125 186.382812 86.738281 186.886719 L 88.636719 191.398438 C 88.746094 191.648438 88.847656 191.902344 88.949219 192.152344 L 89.253906 192.90625 L 90.476562 195.925781 L 90.78125 196.683594 L 90.9375 197.058594 L 91.082031 197.4375 L 91.671875 198.957031 L 92.855469 201.988281 L 93.152344 202.746094 L 93.4375 203.507812 L 94.003906 205.03125 C 94.25 205.679688 93.492188 206.269531 92.898438 205.898438 C 91.992188 205.332031 91.097656 204.761719 90.21875 204.199219 C 89.773438 203.917969 89.332031 203.636719 88.894531 203.355469 C 88.457031 203.078125 88.023438 202.796875 87.589844 202.519531 C 86.730469 201.964844 85.878906 201.410156 85.042969 200.855469 C 84.628906 200.578125 84.214844 200.300781 83.800781 200.027344 C 83.386719 199.753906 82.976562 199.480469 82.566406 199.207031 C 81.746094 198.664062 80.941406 198.121094 80.152344 197.582031 C 79.757812 197.308594 79.367188 197.039062 78.976562 196.769531 C 78.585938 196.5 78.207031 196.226562 77.816406 195.964844 C 76.265625 194.898438 74.769531 193.839844 73.324219 192.785156 C 67.503906 188.59375 62.371094 184.570312 57.832031 180.699219 C 59.199219 180.828125 60.445312 180.921875 61.578125 180.988281 C 62.703125 181.0625 63.714844 181.105469 64.625 181.125 C 66.445312 181.164062 67.851562 181.101562 68.914062 181 C 69.976562 180.894531 70.699219 180.75 71.152344 180.632812 C 71.601562 180.511719 71.792969 180.417969 71.792969 180.417969 C 69.734375 181.082031 67.382812 180.941406 65.019531 180.382812 C 64.722656 180.3125 64.425781 180.238281 64.132812 180.152344 C 63.988281 180.113281 63.835938 180.070312 63.691406 180.027344 C 63.542969 179.980469 63.394531 179.9375 63.242188 179.890625 C 62.648438 179.707031 62.058594 179.503906 61.472656 179.285156 C 60.300781 178.847656 59.164062 178.347656 58.082031 177.828125 C 57.808594 177.699219 57.539062 177.570312 57.273438 177.441406 C 57.007812 177.3125 56.75 177.183594 56.492188 177.054688 C 55.980469 176.792969 55.484375 176.535156 55.015625 176.28125 C 54.546875 176.027344 54.097656 175.777344 53.675781 175.539062 C 53.257812 175.296875 52.859375 175.070312 52.492188 174.859375 C 51.023438 174.015625 50.058594 173.394531 49.839844 173.292969 C 49.816406 173.28125 49.789062 173.289062 49.769531 173.308594 C 49.746094 173.332031 49.707031 173.335938 49.683594 173.3125 C 45.804688 169.5625 42.476562 165.960938 39.597656 162.484375 C 36.71875 159.003906 34.289062 155.648438 32.199219 152.390625 C 32.070312 152.1875 31.941406 151.980469 31.816406 151.777344 C 31.6875 151.578125 31.558594 151.378906 31.433594 151.175781 C 31.183594 150.777344 30.9375 150.375 30.699219 149.96875 C 30.640625 149.867188 30.582031 149.765625 30.519531 149.664062 L 30.429688 149.511719 L 30.339844 149.363281 C 30.222656 149.167969 30.105469 148.96875 29.988281 148.773438 C 29.757812 148.378906 29.53125 147.980469 29.3125 147.578125 C 29.257812 147.480469 29.203125 147.378906 29.148438 147.277344 C 29.09375 147.179688 29.039062 147.082031 28.980469 146.988281 C 28.871094 146.792969 28.761719 146.597656 28.65625 146.402344 C 28.445312 146.011719 28.234375 145.617188 28.03125 145.21875 C 27.980469 145.121094 27.929688 145.027344 27.878906 144.929688 C 27.828125 144.835938 27.777344 144.738281 27.726562 144.640625 C 27.625 144.449219 27.523438 144.257812 27.425781 144.0625 C 27.328125 143.871094 27.230469 143.675781 27.132812 143.480469 C 27.085938 143.382812 27.039062 143.285156 26.992188 143.1875 C 26.941406 143.089844 26.894531 142.988281 26.847656 142.898438 C 25.324219 139.824219 24.027344 136.824219 22.824219 133.882812 C 23.273438 133.902344 23.714844 133.921875 24.140625 133.945312 C 24.578125 133.980469 25 134.011719 25.414062 134.042969 C 25.625 134.058594 25.832031 134.074219 26.035156 134.089844 C 26.140625 134.097656 26.242188 134.105469 26.34375 134.113281 C 26.394531 134.117188 26.445312 134.121094 26.5 134.125 C 26.546875 134.128906 26.597656 134.136719 26.648438 134.140625 C 27.054688 134.179688 27.445312 134.222656 27.832031 134.257812 C 28.226562 134.296875 28.605469 134.335938 28.976562 134.371094 C 29.023438 134.378906 29.070312 134.378906 29.117188 134.386719 C 29.164062 134.390625 29.210938 134.394531 29.253906 134.402344 C 29.347656 134.414062 29.4375 134.425781 29.53125 134.4375 C 29.714844 134.457031 29.890625 134.476562 30.070312 134.5 C 30.429688 134.539062 30.78125 134.582031 31.121094 134.621094 C 31.292969 134.640625 31.460938 134.660156 31.628906 134.679688 C 31.710938 134.6875 31.796875 134.695312 31.878906 134.703125 C 31.960938 134.714844 32.042969 134.726562 32.125 134.738281 C 32.773438 134.820312 33.390625 134.898438 33.980469 134.96875 C 34.277344 135.003906 34.5625 135.035156 34.84375 135.066406 C 34.984375 135.082031 35.121094 135.101562 35.253906 135.121094 C 35.390625 135.136719 35.523438 135.152344 35.652344 135.171875 C 36.179688 135.234375 36.671875 135.292969 37.136719 135.339844 C 37.371094 135.367188 37.597656 135.390625 37.816406 135.410156 C 37.925781 135.421875 38.03125 135.433594 38.136719 135.441406 C 38.242188 135.453125 38.347656 135.460938 38.449219 135.472656 C 40.058594 135.644531 41.210938 135.695312 41.957031 135.699219 C 42.046875 135.695312 42.136719 135.695312 42.21875 135.695312 C 42.296875 135.695312 42.367188 135.695312 42.4375 135.695312 C 42.570312 135.691406 42.679688 135.6875 42.769531 135.683594 C 42.945312 135.675781 43.027344 135.664062 43.027344 135.664062 C 42.882812 135.652344 42.730469 135.640625 42.582031 135.621094 C 42.503906 135.613281 42.425781 135.605469 42.351562 135.59375 C 42.273438 135.582031 42.195312 135.570312 42.117188 135.5625 C 41.804688 135.515625 41.480469 135.460938 41.152344 135.390625 C 40.496094 135.253906 39.8125 135.070312 39.113281 134.851562 C 39.023438 134.824219 38.9375 134.796875 38.847656 134.769531 C 38.757812 134.742188 38.667969 134.714844 38.578125 134.6875 C 38.398438 134.632812 38.21875 134.574219 38.035156 134.511719 C 37.671875 134.394531 37.304688 134.265625 36.9375 134.128906 C 36.207031 133.851562 35.441406 133.578125 34.683594 133.273438 C 34.492188 133.199219 34.300781 133.121094 34.113281 133.042969 C 34.015625 133.003906 33.921875 132.964844 33.828125 132.925781 L 33.683594 132.863281 L 33.542969 132.808594 C 33.15625 132.65625 32.773438 132.503906 32.386719 132.34375 C 32.195312 132.265625 32.007812 132.183594 31.816406 132.105469 L 31.53125 131.984375 L 31.390625 131.921875 C 31.34375 131.902344 31.292969 131.882812 31.246094 131.863281 C 30.859375 131.710938 30.480469 131.554688 30.101562 131.398438 C 29.914062 131.320312 29.726562 131.242188 29.539062 131.160156 C 29.445312 131.121094 29.351562 131.082031 29.261719 131.039062 C 29.167969 131 29.074219 130.964844 28.980469 130.929688 C 28.605469 130.78125 28.234375 130.628906 27.871094 130.480469 C 27.6875 130.40625 27.507812 130.328125 27.332031 130.253906 L 27.195312 130.199219 L 27.058594 130.148438 C 26.972656 130.113281 26.882812 130.078125 26.792969 130.042969 C 26.4375 129.90625 26.085938 129.765625 25.742188 129.628906 C 25.289062 129.4375 24.84375 129.253906 24.421875 129.035156 C 24.210938 128.929688 24.007812 128.8125 23.804688 128.691406 L 23.65625 128.597656 L 23.503906 128.511719 C 23.402344 128.453125 23.304688 128.390625 23.207031 128.328125 C 23.015625 128.203125 22.820312 128.074219 22.640625 127.933594 C 22.546875 127.867188 22.453125 127.796875 22.363281 127.722656 L 22.230469 127.617188 L 22.09375 127.511719 C 21.738281 127.230469 21.398438 126.921875 21.082031 126.589844 C 19.792969 125.292969 18.765625 123.714844 17.957031 121.84375 C 17.796875 121.472656 17.636719 121.101562 17.476562 120.738281 C 17.3125 120.375 17.152344 120.015625 16.988281 119.65625 C 16.90625 119.472656 16.824219 119.292969 16.742188 119.113281 C 16.65625 118.9375 16.574219 118.757812 16.492188 118.585938 C 16.320312 118.230469 16.152344 117.875 15.980469 117.519531 C 15.804688 117.171875 15.632812 116.824219 15.460938 116.480469 C 15.417969 116.394531 15.375 116.308594 15.328125 116.21875 C 15.285156 116.132812 15.242188 116.042969 15.195312 115.960938 C 15.105469 115.792969 15.019531 115.625 14.929688 115.457031 C 14.839844 115.285156 14.75 115.117188 14.660156 114.949219 C 14.613281 114.863281 14.570312 114.777344 14.523438 114.695312 L 14.453125 114.566406 L 14.386719 114.445312 C 14.199219 114.113281 14.015625 113.78125 13.828125 113.457031 C 13.644531 113.125 13.453125 112.808594 13.261719 112.488281 C 13.164062 112.332031 13.070312 112.171875 12.972656 112.011719 C 12.925781 111.933594 12.875 111.855469 12.828125 111.773438 C 12.78125 111.695312 12.730469 111.621094 12.679688 111.542969 C 12.488281 111.234375 12.289062 110.925781 12.089844 110.621094 C 12.042969 110.542969 11.992188 110.46875 11.941406 110.390625 C 11.890625 110.316406 11.84375 110.242188 11.792969 110.167969 C 11.691406 110.019531 11.589844 109.875 11.488281 109.726562 C 11.386719 109.578125 11.285156 109.433594 11.183594 109.285156 C 11.136719 109.214844 11.085938 109.140625 11.03125 109.066406 C 10.980469 108.996094 10.929688 108.925781 10.878906 108.855469 C 10.671875 108.570312 10.46875 108.289062 10.261719 108.011719 C 10.15625 107.871094 10.050781 107.738281 9.949219 107.605469 C 9.84375 107.46875 9.738281 107.335938 9.632812 107.203125 C 9.527344 107.070312 9.425781 106.9375 9.320312 106.804688 C 9.214844 106.671875 9.109375 106.546875 9.003906 106.417969 C 8.792969 106.164062 8.578125 105.914062 8.367188 105.664062 C 8.15625 105.421875 7.941406 105.1875 7.730469 104.953125 C 7.621094 104.835938 7.515625 104.71875 7.414062 104.601562 C 7.304688 104.488281 7.199219 104.378906 7.09375 104.269531 C 6.878906 104.046875 6.667969 103.828125 6.460938 103.617188 C 6.035156 103.203125 5.617188 102.800781 5.203125 102.433594 C 5.097656 102.339844 4.996094 102.246094 4.894531 102.15625 C 4.792969 102.066406 4.691406 101.976562 4.585938 101.894531 C 4.382812 101.722656 4.179688 101.554688 3.980469 101.394531 C 2.429688 100.109375 1.152344 99.21875 0.382812 98.691406 C 0.164062 98.542969 0.078125 98.328125 0.117188 98.105469 " fill-opacity="1" fill-rule="nonzero"/></g><g fill="#ffffff" fill-opacity="1"><g transform="translate(115.147015, 207.740146)"><g><path d="M 94.796875 8.421875 C 95.210938 8.773438 95.394531 9.160156 95.34375 9.578125 C 95.300781 10.003906 95.175781 10.390625 94.96875 10.734375 C 94.96875 10.796875 94.96875 10.828125 94.96875 10.828125 C 93.519531 14.265625 91.332031 16.851562 88.40625 18.59375 C 85.488281 20.34375 81.976562 21.070312 77.875 20.78125 C 73.925781 20.394531 70.828125 19.015625 68.578125 16.640625 C 66.328125 14.265625 65.03125 11.078125 64.6875 7.078125 C 64.53125 5.128906 64.601562 3.1875 64.90625 1.25 C 65.21875 -0.675781 65.597656 -2.601562 66.046875 -4.53125 C 66.347656 -5.738281 66.644531 -6.941406 66.9375 -8.140625 C 67.476562 -10.140625 67.957031 -12.160156 68.375 -14.203125 C 68.957031 -17.410156 68.613281 -19.632812 67.34375 -20.875 C 66.070312 -22.125 64.269531 -22.789062 61.9375 -22.875 C 59.613281 -22.957031 57.257812 -22.835938 54.875 -22.515625 C 53.507812 -22.378906 52.257812 -22.289062 51.125 -22.25 C 50.675781 -22.25 50.328125 -22.125 50.078125 -21.875 C 49.828125 -21.625 49.597656 -21.335938 49.390625 -21.015625 C 48.191406 -18.878906 47.023438 -16.710938 45.890625 -14.515625 C 35.285156 5.472656 23.789062 24.9375 11.40625 43.875 C 9.5 46.757812 7.523438 49.609375 5.484375 52.421875 C 5.023438 53.109375 4.507812 53.71875 3.9375 54.25 C 3.375 54.78125 2.6875 55.171875 1.875 55.421875 C 0.375 55.859375 -0.8125 55.765625 -1.6875 55.140625 C -2.5625 54.515625 -2.960938 53.40625 -2.890625 51.8125 C -2.804688 49.96875 -2.535156 48.117188 -2.078125 46.265625 C 0.617188 34.972656 4.101562 25.304688 8.375 17.265625 C 12.644531 9.234375 17.800781 1.972656 23.84375 -4.515625 C 29.882812 -11.015625 36.859375 -17.570312 44.765625 -24.1875 C 46.015625 -25.1875 47.015625 -26.410156 47.765625 -27.859375 C 48.804688 -29.859375 49.847656 -31.859375 50.890625 -33.859375 C 54.753906 -41.285156 58.554688 -48.734375 62.296875 -56.203125 C 66.046875 -63.679688 69.59375 -71.242188 72.9375 -78.890625 C 76.226562 -86.523438 77.925781 -92.234375 78.03125 -96.015625 C 78.132812 -99.796875 76.382812 -101.789062 72.78125 -102 C 69.175781 -102.21875 63.503906 -100.785156 55.765625 -97.703125 C 48.179688 -94.660156 40.753906 -91.265625 33.484375 -87.515625 C 26.210938 -83.765625 19.046875 -79.765625 11.984375 -75.515625 C 9.359375 -73.972656 6.109375 -71.925781 2.234375 -69.375 C -1.640625 -66.820312 -5.460938 -64.070312 -9.234375 -61.125 C -13.003906 -58.1875 -16.113281 -55.3125 -18.5625 -52.5 C -20.351562 -50.363281 -20.800781 -48.90625 -19.90625 -48.125 C -19.007812 -47.351562 -17.210938 -46.914062 -14.515625 -46.8125 C -13.210938 -46.757812 -11 -46.742188 -7.875 -46.765625 C -4.757812 -46.796875 -1.28125 -46.957031 2.5625 -47.25 C 4.71875 -47.40625 6.816406 -47.5625 8.859375 -47.71875 C 11.941406 -48.019531 14.582031 -48.21875 16.78125 -48.3125 C 18.988281 -48.414062 20.300781 -48.289062 20.71875 -47.9375 C 20.851562 -47.539062 19.320312 -47.101562 16.125 -46.625 C 12.9375 -46.15625 9.003906 -45.722656 4.328125 -45.328125 C -0.347656 -44.929688 -4.882812 -44.691406 -9.28125 -44.609375 C -13.675781 -44.523438 -17 -44.691406 -19.25 -45.109375 C -23.195312 -45.941406 -24.992188 -47.472656 -24.640625 -49.703125 C -24.296875 -51.929688 -22.394531 -54.613281 -18.9375 -57.75 C -15.488281 -60.894531 -11.09375 -64.238281 -5.75 -67.78125 C -0.414062 -71.332031 5.304688 -74.875 11.421875 -78.40625 C 17.546875 -81.9375 23.46875 -85.210938 29.1875 -88.234375 C 34.914062 -91.253906 39.851562 -93.757812 44 -95.75 C 48.144531 -97.75 50.941406 -99.046875 52.390625 -99.640625 C 58.335938 -102.046875 63.570312 -103.675781 68.09375 -104.53125 C 72.613281 -105.382812 76.148438 -105.15625 78.703125 -103.84375 C 81.265625 -102.539062 82.554688 -99.890625 82.578125 -95.890625 C 82.597656 -91.890625 81.085938 -86.25 78.046875 -78.96875 C 75.585938 -73.175781 72.972656 -67.441406 70.203125 -61.765625 C 67.429688 -56.085938 64.617188 -50.429688 61.765625 -44.796875 C 60.671875 -42.640625 59.546875 -40.414062 58.390625 -38.125 C 57.753906 -36.875 57.0625 -35.546875 56.3125 -34.140625 C 57.144531 -34.335938 57.820312 -34.597656 58.34375 -34.921875 C 58.875 -35.253906 59.34375 -35.59375 59.75 -35.9375 C 59.957031 -36.09375 60.1875 -36.238281 60.4375 -36.375 C 70.425781 -43.6875 81.335938 -51.050781 93.171875 -58.46875 C 105.003906 -65.882812 117.441406 -72.800781 130.484375 -79.21875 C 143.535156 -85.632812 156.878906 -90.960938 170.515625 -95.203125 C 184.148438 -99.453125 197.765625 -102.078125 211.359375 -103.078125 C 224.953125 -104.078125 238.21875 -102.882812 251.15625 -99.5 C 251.300781 -99.457031 251.445312 -99.332031 251.59375 -99.125 C 251.738281 -98.925781 251.8125 -98.722656 251.8125 -98.515625 C 251.8125 -98.222656 251.703125 -97.988281 251.484375 -97.8125 C 251.265625 -97.644531 250.976562 -97.5625 250.625 -97.5625 C 250.375 -97.488281 250.097656 -97.507812 249.796875 -97.625 C 239.015625 -100.425781 227.835938 -101.5 216.265625 -100.84375 C 204.691406 -100.195312 192.957031 -98.25 181.0625 -95 C 169.175781 -91.757812 157.398438 -87.585938 145.734375 -82.484375 C 134.078125 -77.390625 122.785156 -71.769531 111.859375 -65.625 C 100.941406 -59.476562 90.671875 -53.179688 81.046875 -46.734375 C 71.429688 -40.285156 62.734375 -34.085938 54.953125 -28.140625 C 54.898438 -28.085938 54.875 -28.0625 54.875 -28.0625 C 54.257812 -27.675781 53.679688 -27.234375 53.140625 -26.734375 C 52.597656 -26.234375 52.347656 -25.804688 52.390625 -25.453125 C 52.429688 -25.109375 53.054688 -24.957031 54.265625 -25 C 54.628906 -25 54.984375 -25 55.328125 -25 C 57.523438 -25.207031 59.832031 -25.269531 62.25 -25.1875 C 64.664062 -25.113281 66.875 -24.703125 68.875 -23.953125 C 71.78125 -22.742188 73.234375 -20.597656 73.234375 -17.515625 C 73.191406 -16.054688 73.007812 -14.632812 72.6875 -13.25 C 72.195312 -10.9375 71.675781 -8.632812 71.125 -6.34375 C 70.582031 -3.84375 70.039062 -1.320312 69.5 1.21875 C 68.832031 4.21875 68.929688 7.21875 69.796875 10.21875 C 70.640625 12.8125 71.957031 14.820312 73.75 16.25 C 75.539062 17.675781 77.585938 18.421875 79.890625 18.484375 C 82.203125 18.554688 84.503906 17.84375 86.796875 16.34375 C 88.503906 15.207031 89.878906 13.742188 90.921875 11.953125 C 91.128906 11.546875 91.332031 11.140625 91.53125 10.734375 C 91.664062 10.347656 91.835938 9.972656 92.046875 9.609375 C 92.453125 8.972656 92.914062 8.539062 93.4375 8.3125 C 93.957031 8.082031 94.410156 8.117188 94.796875 8.421875 Z M 39.578125 -12.5625 C 39.628906 -12.65625 39.710938 -12.78125 39.828125 -12.9375 C 40.003906 -13.28125 40.234375 -13.703125 40.515625 -14.203125 C 40.804688 -14.703125 41.023438 -15.175781 41.171875 -15.625 C 41.316406 -16.082031 41.328125 -16.363281 41.203125 -16.46875 C 41.078125 -16.570312 40.707031 -16.375 40.09375 -15.875 C 29.914062 -7.882812 21.914062 1.09375 16.09375 11.0625 C 10.269531 21.039062 5.90625 32.476562 3 45.375 C 2.75 46.507812 2.722656 47.140625 2.921875 47.265625 C 3.128906 47.390625 3.457031 47.21875 3.90625 46.75 C 4.363281 46.289062 4.800781 45.75 5.21875 45.125 C 5.644531 44.5 5.960938 44.0625 6.171875 43.8125 C 12.117188 34.613281 17.882812 25.328125 23.46875 15.953125 C 29.050781 6.585938 34.421875 -2.914062 39.578125 -12.5625 Z M 39.578125 -12.5625 "/></g></g></g><g fill="#ffffff" fill-opacity="1"><g transform="translate(199.00509, 207.740146)"><g><path d="M 27.65625 -15.875 C 27.25 -15.507812 26.816406 -15.179688 26.359375 -14.890625 C 24.910156 -13.984375 23.597656 -13.265625 22.421875 -12.734375 C 21.253906 -12.210938 19.878906 -11.679688 18.296875 -11.140625 C 15.929688 -10.429688 14.410156 -10.585938 13.734375 -11.609375 C 13.066406 -12.640625 12.960938 -14.0625 13.421875 -15.875 C 14.054688 -18.46875 14.425781 -20.363281 14.53125 -21.5625 C 14.632812 -22.769531 14.234375 -23.1875 13.328125 -22.8125 C 12.429688 -22.4375 10.804688 -21.191406 8.453125 -19.078125 C 5.160156 -16.234375 2.34375 -12.984375 0 -9.328125 C -0.289062 -8.828125 -0.648438 -8.414062 -1.078125 -8.09375 C -1.515625 -7.78125 -2.050781 -7.625 -2.6875 -7.625 C -3.300781 -7.625 -3.742188 -7.78125 -4.015625 -8.09375 C -4.285156 -8.414062 -4.296875 -8.851562 -4.046875 -9.40625 C -2.710938 -12.351562 -1.34375 -15.28125 0.0625 -18.1875 C 2.46875 -23.226562 4.84375 -28.25 7.1875 -33.25 C 8.9375 -37 10.660156 -40.742188 12.359375 -44.484375 C 13.410156 -46.691406 14.4375 -48.894531 15.4375 -51.09375 C 15.519531 -51.28125 15.617188 -51.472656 15.734375 -51.671875 C 15.828125 -51.921875 15.9375 -52.171875 16.0625 -52.421875 C 16.1875 -52.671875 16.328125 -52.945312 16.484375 -53.25 C 16.617188 -53.5 16.875 -53.703125 17.25 -53.859375 C 17.625 -54.015625 18 -54.113281 18.375 -54.15625 C 18.75 -54.207031 19.039062 -54.1875 19.25 -54.09375 C 19.539062 -53.882812 19.703125 -53.664062 19.734375 -53.4375 C 19.773438 -53.21875 19.738281 -52.984375 19.625 -52.734375 C 19.570312 -52.691406 19.546875 -52.613281 19.546875 -52.5 C 19.097656 -51.15625 18.625 -49.859375 18.125 -48.609375 C 15.238281 -41.660156 12.09375 -34.8125 8.6875 -28.0625 C 8.4375 -27.613281 8.140625 -27.070312 7.796875 -26.4375 C 7.296875 -25.53125 6.828125 -24.640625 6.390625 -23.765625 C 5.960938 -22.890625 5.820312 -22.300781 5.96875 -22 C 6.125 -21.707031 6.800781 -21.9375 8 -22.6875 C 8.363281 -22.9375 8.695312 -23.1875 9 -23.4375 C 9.945312 -24.070312 10.890625 -24.675781 11.828125 -25.25 C 12.640625 -25.789062 13.546875 -26.082031 14.546875 -26.125 C 16.929688 -26.28125 18.269531 -25.203125 18.5625 -22.890625 C 18.675781 -21.960938 18.640625 -21.039062 18.453125 -20.125 C 18.273438 -19.21875 18.0625 -18.320312 17.8125 -17.4375 C 17.769531 -17.1875 17.726562 -16.9375 17.6875 -16.6875 C 17.269531 -15.144531 17.375 -14.257812 18 -14.03125 C 18.625 -13.800781 19.5 -13.925781 20.625 -14.40625 C 21.75 -14.882812 22.890625 -15.460938 24.046875 -16.140625 C 24.847656 -16.554688 25.546875 -16.910156 26.140625 -17.203125 C 26.742188 -17.492188 27.191406 -17.617188 27.484375 -17.578125 C 28.035156 -17.484375 28.285156 -17.257812 28.234375 -16.90625 C 28.191406 -16.5625 28 -16.21875 27.65625 -15.875 Z M 27.65625 -15.875 "/></g></g></g><g fill="#ffffff" fill-opacity="1"><g transform="translate(224.993599, 207.740146)"><g><path d="M 24.703125 -17.34375 C 25.242188 -17.039062 25.285156 -16.300781 24.828125 -15.125 C 24.171875 -14.257812 23.46875 -13.453125 22.71875 -12.703125 C 21.96875 -11.953125 21.148438 -11.285156 20.265625 -10.703125 C 20.203125 -10.703125 20.171875 -10.675781 20.171875 -10.625 C 19.578125 -10.21875 18.953125 -9.867188 18.296875 -9.578125 C 12.867188 -7.617188 10.097656 -8.765625 9.984375 -13.015625 C 7.773438 -11.109375 6.296875 -9.9375 5.546875 -9.5 C 3.753906 -8.4375 1.816406 -7.960938 -0.265625 -8.078125 C -1.816406 -8.160156 -2.867188 -8.628906 -3.421875 -9.484375 C -3.984375 -10.335938 -3.929688 -11.488281 -3.265625 -12.9375 C -2.265625 -15.238281 -0.847656 -17.285156 0.984375 -19.078125 C 3.140625 -21.078125 5.535156 -22.675781 8.171875 -23.875 C 9.578125 -24.582031 11.054688 -24.859375 12.609375 -24.703125 C 14.148438 -24.609375 15.078125 -23.734375 15.390625 -22.078125 C 15.535156 -21.578125 15.410156 -21.132812 15.015625 -20.75 C 14.515625 -20.289062 13.9375 -20.1875 13.28125 -20.4375 C 13.238281 -20.4375 13.175781 -20.445312 13.09375 -20.46875 C 13.019531 -20.488281 12.957031 -20.523438 12.90625 -20.578125 C 12.25 -21.484375 11.582031 -21.863281 10.90625 -21.71875 C 10.238281 -21.570312 9.53125 -21.269531 8.78125 -20.8125 C 5.289062 -18.769531 2.691406 -15.921875 0.984375 -12.265625 C 0.898438 -12.109375 0.84375 -11.929688 0.8125 -11.734375 C 0.789062 -11.546875 0.847656 -11.394531 0.984375 -11.28125 C 1.390625 -11.144531 1.84375 -11.171875 2.34375 -11.359375 C 2.84375 -11.554688 3.34375 -11.84375 3.84375 -12.21875 C 4.34375 -12.59375 4.765625 -12.90625 5.109375 -13.15625 C 5.148438 -13.21875 5.171875 -13.25 5.171875 -13.25 C 6.835938 -14.632812 8.460938 -16.054688 10.046875 -17.515625 C 10.753906 -18.265625 11.628906 -18.679688 12.671875 -18.765625 C 14.171875 -18.765625 14.796875 -18.097656 14.546875 -16.765625 C 14.410156 -16.265625 14.265625 -15.765625 14.109375 -15.265625 C 13.515625 -13.109375 13.488281 -11.84375 14.03125 -11.46875 C 14.582031 -11.09375 15.414062 -11.09375 16.53125 -11.46875 C 17.65625 -11.84375 18.78125 -12.554688 19.90625 -13.609375 C 21.03125 -14.660156 21.976562 -15.625 22.75 -16.5 C 23.519531 -17.375 24.171875 -17.65625 24.703125 -17.34375 Z M 24.703125 -17.34375 "/></g></g></g><g fill="#ffffff" fill-opacity="1"><g transform="translate(247.576012, 207.740146)"><g><path d="M 21.296875 -16.453125 C 18.242188 -12.867188 15.257812 -10.222656 12.34375 -8.515625 C 9.425781 -6.816406 6.300781 -6.253906 2.96875 -6.828125 C -0.351562 -7.410156 -1.71875 -9.644531 -1.125 -13.53125 C -0.71875 -15.476562 -0.160156 -17.382812 0.546875 -19.25 C 2.296875 -23.582031 4.066406 -27.894531 5.859375 -32.1875 C 6.453125 -33.738281 7.078125 -35.296875 7.734375 -36.859375 C 7.890625 -37.203125 8.035156 -37.539062 8.171875 -37.875 C 8.421875 -38.445312 8.671875 -39.03125 8.921875 -39.625 C 9.285156 -40.613281 8.890625 -41.132812 7.734375 -41.1875 C 7.078125 -41.1875 6.429688 -41.1875 5.796875 -41.1875 C 5.492188 -41.1875 5.160156 -41.1875 4.796875 -41.1875 C 4.460938 -41.132812 4.113281 -41.085938 3.75 -41.046875 C 3.15625 -41.003906 2.566406 -40.984375 1.984375 -40.984375 C 1.410156 -40.984375 0.875 -41.128906 0.375 -41.421875 C 0.238281 -41.460938 0.128906 -41.546875 0.046875 -41.671875 C -0.0234375 -41.796875 -0.0625 -41.941406 -0.0625 -42.109375 C -0.0195312 -42.191406 0.0507812 -42.296875 0.15625 -42.421875 C 0.257812 -42.546875 0.390625 -42.632812 0.546875 -42.6875 C 1.046875 -42.882812 1.566406 -43.03125 2.109375 -43.125 C 3.515625 -43.195312 4.910156 -43.253906 6.296875 -43.296875 C 6.847656 -43.296875 7.328125 -43.296875 7.734375 -43.296875 C 8.640625 -43.296875 9.3125 -43.328125 9.75 -43.390625 C 10.195312 -43.460938 10.554688 -43.703125 10.828125 -44.109375 C 11.097656 -44.523438 11.414062 -45.148438 11.78125 -45.984375 C 11.988281 -46.441406 12.238281 -46.941406 12.53125 -47.484375 C 13.28125 -49.078125 14.03125 -50.703125 14.78125 -52.359375 C 15.125 -53.109375 15.476562 -53.832031 15.84375 -54.53125 C 16.132812 -55.238281 16.597656 -55.785156 17.234375 -56.171875 C 17.847656 -56.460938 18.382812 -56.441406 18.84375 -56.109375 C 18.976562 -56.015625 19.082031 -55.863281 19.15625 -55.65625 C 19.238281 -55.457031 19.28125 -55.28125 19.28125 -55.125 C 19.28125 -54.226562 19.050781 -53.351562 18.59375 -52.5 C 18.507812 -52.3125 18.410156 -52.09375 18.296875 -51.84375 C 17.992188 -51.03125 17.675781 -50.203125 17.34375 -49.359375 C 16.675781 -47.816406 16.050781 -46.238281 15.46875 -44.625 C 15.3125 -44.332031 15.304688 -44.070312 15.453125 -43.84375 C 15.597656 -43.613281 15.816406 -43.5 16.109375 -43.5 C 17.722656 -43.457031 19.300781 -43.4375 20.84375 -43.4375 C 21.644531 -43.4375 22.441406 -43.4375 23.234375 -43.4375 C 25.734375 -43.382812 26.734375 -43.03125 26.234375 -42.375 C 25.890625 -41.988281 25.519531 -41.765625 25.125 -41.703125 C 24.726562 -41.648438 24.320312 -41.660156 23.90625 -41.734375 C 23.664062 -41.734375 23.421875 -41.734375 23.171875 -41.734375 C 20.617188 -41.566406 18.097656 -41.460938 15.609375 -41.421875 C 14.441406 -41.421875 13.664062 -40.898438 13.28125 -39.859375 C 12.875 -38.859375 12.476562 -37.859375 12.09375 -36.859375 C 11.519531 -35.546875 10.984375 -34.265625 10.484375 -33.015625 C 9.992188 -31.828125 9.5 -30.632812 9 -29.4375 C 7.695312 -26.394531 6.445312 -23.335938 5.25 -20.265625 C 4.5 -18.265625 3.90625 -16.222656 3.46875 -14.140625 C 2.519531 -10.347656 3.988281 -8.894531 7.875 -9.78125 C 11.6875 -10.6875 15.679688 -13.429688 19.859375 -18.015625 C 21.671875 -19.179688 22.148438 -18.660156 21.296875 -16.453125 Z M 21.296875 -16.453125 "/></g></g></g><g fill="#ffffff" fill-opacity="1"><g transform="translate(266.922636, 207.740146)"><g><path d="M 16.34375 -20.90625 C 16.144531 -19.34375 15.410156 -18.320312 14.140625 -17.84375 C 12.867188 -17.375 12.453125 -18 12.890625 -19.71875 C 13.335938 -21.445312 12.5625 -21.882812 10.5625 -21.03125 C 8.5625 -20.1875 6.914062 -19.113281 5.625 -17.8125 C 3.625 -15.769531 1.851562 -13.566406 0.3125 -11.203125 C 0.144531 -11.003906 0.0195312 -10.835938 -0.0625 -10.703125 C -0.519531 -10.035156 -0.976562 -9.410156 -1.4375 -8.828125 C -1.726562 -8.410156 -2.070312 -8.148438 -2.46875 -8.046875 C -2.863281 -7.953125 -3.265625 -7.9375 -3.671875 -8 C -4.066406 -8.050781 -4.363281 -8.203125 -4.5625 -8.453125 C -4.769531 -8.703125 -4.796875 -8.992188 -4.640625 -9.328125 C -4.390625 -9.941406 -4.09375 -10.566406 -3.75 -11.203125 C -1.707031 -14.992188 0.367188 -18.800781 2.484375 -22.625 C 2.535156 -22.664062 2.5625 -22.707031 2.5625 -22.75 C 2.851562 -23.34375 3.203125 -23.890625 3.609375 -24.390625 C 4.066406 -24.890625 4.585938 -25.09375 5.171875 -25 C 5.765625 -24.914062 6.164062 -24.566406 6.375 -23.953125 C 6.625 -23.148438 6.835938 -22.695312 7.015625 -22.59375 C 7.203125 -22.5 7.613281 -22.578125 8.25 -22.828125 C 9.601562 -23.328125 10.925781 -23.675781 12.21875 -23.875 C 13.519531 -24.082031 14.582031 -24.03125 15.40625 -23.71875 C 16.238281 -23.414062 16.550781 -22.476562 16.34375 -20.90625 Z M 16.34375 -20.90625 "/></g></g></g><g fill="#ffffff" fill-opacity="1"><g transform="translate(283.953114, 207.740146)"><g><path d="M 13.53125 -14.359375 C 12.320312 -12.921875 10.890625 -11.597656 9.234375 -10.390625 C 7.578125 -9.179688 5.703125 -8.367188 3.609375 -7.953125 C 1.523438 -7.535156 -0.09375 -7.6875 -1.25 -8.40625 C -2.414062 -9.132812 -2.644531 -10.75 -1.9375 -13.25 C -1.03125 -15.84375 0.21875 -18.304688 1.8125 -20.640625 C 2.164062 -21.140625 2.6875 -21.492188 3.375 -21.703125 C 3.875 -21.816406 4.3125 -21.726562 4.6875 -21.4375 C 5.0625 -21.15625 5.203125 -20.800781 5.109375 -20.375 C 4.765625 -19.550781 4.390625 -18.726562 3.984375 -17.90625 C 3.578125 -17.09375 3.304688 -16.5625 3.171875 -16.3125 C 2.367188 -14.863281 1.8125 -13.34375 1.5 -11.75 C 1.5 -10.84375 2.710938 -10.785156 5.140625 -11.578125 C 7.566406 -12.378906 9.925781 -13.835938 12.21875 -15.953125 C 14.519531 -18.078125 15.617188 -18.703125 15.515625 -17.828125 C 15.410156 -16.953125 14.75 -15.796875 13.53125 -14.359375 Z M 7.59375 -25.75 C 7.476562 -25.65625 7.242188 -25.546875 6.890625 -25.421875 C 6.546875 -25.304688 6.171875 -25.21875 5.765625 -25.15625 C 5.367188 -25.101562 5.054688 -25.164062 4.828125 -25.34375 C 4.609375 -25.519531 4.597656 -25.882812 4.796875 -26.4375 C 5.160156 -27.382812 5.539062 -28.21875 5.9375 -28.9375 C 6.34375 -29.65625 6.863281 -30.445312 7.5 -31.3125 C 7.90625 -31.695312 8.34375 -31.90625 8.8125 -31.9375 C 9.289062 -31.96875 9.6875 -31.84375 10 -31.5625 C 10.320312 -31.28125 10.414062 -30.890625 10.28125 -30.390625 C 9.78125 -28.585938 8.882812 -27.039062 7.59375 -25.75 Z M 7.59375 -25.75 "/></g></g></g><g fill="#ffffff" fill-opacity="1"><g transform="translate(197.158835, 213.992433)"><g><path d="M 8.191406 -9.710938 L 8.191406 -0.585938 C 8.046875 -0.847656 7.886719 -1.109375 7.738281 -1.3125 L 2 -9.710938 L 1.09375 -9.710938 L 1.09375 0 L 1.707031 0 L 1.707031 -9.140625 C 1.8125 -8.9375 1.941406 -8.703125 2.132812 -8.425781 L 7.898438 0 L 8.804688 0 L 8.804688 -9.710938 Z M 8.191406 -9.710938 "/></g></g></g><g fill="#ffffff" fill-opacity="1"><g transform="translate(217.555992, 213.992433)"><g><path d="M 8.484375 0 L 9.125 0 L 5.285156 -9.710938 L 4.425781 -9.710938 L 0.585938 0 L 1.210938 0 L 2.335938 -2.832031 L 7.359375 -2.832031 Z M 2.539062 -3.359375 L 4.847656 -9.199219 L 7.15625 -3.359375 Z M 2.539062 -3.359375 "/></g></g></g><g fill="#ffffff" fill-opacity="1"><g transform="translate(237.763434, 213.992433)"><g><path d="M 8.132812 -9.710938 L 4.890625 -1.007812 C 4.832031 -0.847656 4.773438 -0.699219 4.730469 -0.539062 L 4.554688 -1.007812 L 1.3125 -9.710938 L 0.65625 -9.710938 L 4.277344 0 L 5.140625 0 L 8.761719 -9.710938 Z M 8.132812 -9.710938 "/></g></g></g><g fill="#ffffff" fill-opacity="1"><g transform="translate(257.678987, 213.992433)"><g><path d="M 0.554688 0 L 3.8125 0 C 4.46875 0 4.6875 -0.25 4.6875 -0.816406 L 4.6875 -9.710938 L 4.074219 -9.710938 L 4.074219 -0.527344 L 0.554688 -0.527344 Z M 0.554688 0 "/></g></g></g><g fill="#ffffff" fill-opacity="1"><g transform="translate(273.9022, 213.992433)"><g><path d="M 5.476562 0.25 C 8.644531 0.25 10.148438 -1.8125 10.148438 -4.878906 C 10.148438 -7.898438 8.644531 -9.972656 5.476562 -9.972656 C 2.308594 -9.972656 0.804688 -7.914062 0.804688 -4.878906 C 0.804688 -1.796875 2.308594 0.25 5.476562 0.25 Z M 1.460938 -4.878906 C 1.460938 -7.957031 2.789062 -9.449219 5.476562 -9.449219 C 8.164062 -9.449219 9.492188 -7.957031 9.492188 -4.878906 C 9.492188 -1.78125 8.164062 -0.277344 5.476562 -0.277344 C 2.789062 -0.277344 1.460938 -1.78125 1.460938 -4.878906 Z M 1.460938 -4.878906 "/></g></g></g><g fill="#ffffff" fill-opacity="1"><g transform="translate(295.350146, 213.992433)"><g><path d="M 8.5 -9.710938 L 0.4375 -9.710938 L 0.4375 -9.183594 L 4.175781 -9.183594 L 4.175781 0.0273438 L 4.789062 0.0273438 L 4.789062 -9.183594 L 8.5 -9.183594 Z M 8.5 -9.710938 "/></g></g></g></svg>