<svg xmlns="http://www.w3.org/2000/svg" xmlns:xlink="http://www.w3.org/1999/xlink" width="170" zoomAndPan="magnify" viewBox="0 0 127.5 40.499999" height="54" preserveAspectRatio="xMidYMid meet" version="1.0"><defs><g/></defs><g fill="#97e4ff" fill-opacity="1"><g transform="translate(0.838463, 21.230504)"><g><path d="M 11.65625 -12.1875 L 10.339844 -12.1875 C 10.207031 -12.1875 9.925781 -12.144531 9.925781 -11.667969 L 9.925781 -2.78125 C 9.925781 -2.765625 9.925781 -2.765625 9.925781 -2.75 L 9.851562 -2.75 C 9.835938 -2.75 9.820312 -2.75 9.804688 -2.796875 L 5.132812 -11.109375 C 5.015625 -11.328125 4.910156 -11.507812 4.808594 -11.640625 C 4.703125 -11.789062 4.601562 -11.90625 4.496094 -11.980469 C 4.378906 -12.070312 4.246094 -12.128906 4.082031 -12.15625 C 3.933594 -12.171875 3.757812 -12.1875 3.566406 -12.1875 L 2.457031 -12.1875 C 2.027344 -12.1875 1.699219 -12.039062 1.492188 -11.773438 C 1.285156 -11.492188 1.183594 -11.003906 1.183594 -10.28125 L 1.183594 -0.503906 C 1.183594 -0.0429688 1.480469 0.015625 1.613281 0.015625 L 2.929688 0.015625 C 3.0625 0.015625 3.34375 -0.0429688 3.34375 -0.503906 L 3.34375 -9.390625 C 3.34375 -9.40625 3.34375 -9.421875 3.34375 -9.421875 L 3.417969 -9.421875 C 3.417969 -9.421875 3.429688 -9.421875 3.460938 -9.378906 L 8.148438 -1.066406 C 8.269531 -0.828125 8.386719 -0.652344 8.488281 -0.519531 C 8.59375 -0.371094 8.695312 -0.265625 8.816406 -0.191406 C 8.933594 -0.105469 9.066406 -0.0585938 9.214844 -0.03125 C 9.347656 0 9.511719 0.015625 9.71875 0.015625 L 10.796875 0.015625 C 11.226562 0.015625 11.550781 -0.132812 11.757812 -0.414062 C 11.964844 -0.679688 12.070312 -1.167969 12.070312 -1.894531 L 12.070312 -11.667969 C 12.070312 -12.144531 11.773438 -12.1875 11.65625 -12.1875 Z M 11.65625 -12.1875 "/></g></g></g><g fill="#97e4ff" fill-opacity="1"><g transform="translate(13.347424, 21.230504)"><g><path d="M 8.269531 -5.074219 C 7.972656 -5.5625 7.675781 -5.960938 7.378906 -6.242188 C 7.46875 -6.359375 7.558594 -6.476562 7.660156 -6.625 C 7.78125 -6.820312 7.914062 -7.039062 8.0625 -7.292969 L 10.5 -11.582031 C 10.546875 -11.683594 10.558594 -11.804688 10.546875 -11.9375 C 10.5 -12.097656 10.382812 -12.1875 10.207031 -12.1875 L 8.742188 -12.1875 C 8.578125 -12.1875 8.476562 -12.15625 8.414062 -12.097656 C 8.355469 -12.054688 8.296875 -11.996094 8.253906 -11.890625 L 6.019531 -7.941406 C 5.929688 -7.792969 5.84375 -7.675781 5.769531 -7.574219 C 5.695312 -7.484375 5.605469 -7.410156 5.53125 -7.367188 C 5.441406 -7.320312 5.339844 -7.292969 5.222656 -7.277344 C 5.101562 -7.261719 4.941406 -7.246094 4.746094 -7.246094 L 3.386719 -7.246094 L 3.386719 -11.667969 C 3.386719 -12.144531 3.089844 -12.1875 2.972656 -12.1875 L 1.613281 -12.1875 C 1.492188 -12.1875 1.183594 -12.144531 1.183594 -11.667969 L 1.183594 -0.503906 C 1.183594 -0.0429688 1.492188 0.015625 1.613281 0.015625 L 2.972656 0.015625 C 3.089844 0.015625 3.386719 -0.0429688 3.386719 -0.503906 L 3.386719 -5.058594 L 4.882812 -5.058594 C 5.234375 -5.058594 5.503906 -5.015625 5.679688 -4.910156 C 5.84375 -4.820312 6.003906 -4.628906 6.167969 -4.332031 L 8.476562 -0.28125 C 8.519531 -0.191406 8.578125 -0.117188 8.636719 -0.0742188 C 8.695312 -0.015625 8.800781 0.015625 8.949219 0.015625 L 10.546875 0.015625 C 10.753906 0.015625 10.871094 -0.105469 10.886719 -0.296875 C 10.902344 -0.445312 10.886719 -0.5625 10.828125 -0.636719 Z M 8.269531 -5.074219 "/></g></g></g><g fill="#97e4ff" fill-opacity="1"><g transform="translate(24.688237, 21.230504)"><g><path d="M 11.417969 -8.414062 L 11.417969 -9.242188 C 11.417969 -10.207031 11.226562 -10.945312 10.839844 -11.433594 C 10.457031 -11.9375 9.804688 -12.1875 8.902344 -12.1875 L 2.367188 -12.1875 L 2.367188 -12.171875 C 1.9375 -12.144531 1.566406 -11.90625 1.347656 -11.550781 C 1.285156 -11.433594 1.226562 -11.300781 1.199219 -11.179688 L 1.183594 -1.078125 C 1.210938 -0.917969 1.273438 -0.753906 1.347656 -0.621094 C 1.582031 -0.222656 2.011719 0.015625 2.46875 0.015625 L 9.125 0.015625 C 9.570312 0.015625 9.9375 -0.0585938 10.234375 -0.207031 C 10.546875 -0.355469 10.796875 -0.5625 10.972656 -0.84375 C 11.167969 -1.109375 11.285156 -1.433594 11.375 -1.820312 C 11.449219 -2.1875 11.492188 -2.617188 11.492188 -3.078125 L 11.492188 -4.066406 C 11.492188 -5.042969 11.210938 -5.78125 10.679688 -6.269531 C 11.179688 -6.773438 11.417969 -7.5 11.417969 -8.414062 Z M 3.359375 -2.261719 L 3.359375 -9.910156 C 3.359375 -9.96875 3.371094 -10 3.386719 -10 L 8.519531 -10 C 8.800781 -10 9.007812 -9.925781 9.125 -9.792969 C 9.242188 -9.65625 9.304688 -9.421875 9.304688 -9.109375 L 9.304688 -8.089844 C 9.304688 -7.808594 9.242188 -7.585938 9.109375 -7.441406 C 8.992188 -7.304688 8.742188 -7.234375 8.355469 -7.234375 L 5.488281 -7.234375 C 5.222656 -7.234375 5 -7.011719 5 -6.746094 L 5 -5.53125 C 5 -5.25 5.222656 -5.042969 5.488281 -5.042969 L 8.355469 -5.042969 C 8.742188 -5.042969 8.992188 -4.953125 9.125 -4.808594 C 9.242188 -4.660156 9.316406 -4.421875 9.316406 -4.097656 L 9.316406 -3.089844 C 9.316406 -2.75 9.257812 -2.515625 9.140625 -2.382812 C 9.023438 -2.25 8.816406 -2.1875 8.519531 -2.1875 L 3.371094 -2.1875 C 3.371094 -2.1875 3.359375 -2.203125 3.359375 -2.261719 Z M 3.359375 -2.261719 "/></g></g></g><g fill="#97e4ff" fill-opacity="1"><g transform="translate(36.620517, 21.230504)"><g><path d="M 11.269531 -8.652344 C 11.269531 -8.636719 11.269531 -8.621094 11.269531 -8.609375 C 11.269531 -8.59375 11.269531 -8.578125 11.269531 -8.5625 Z M 11.550781 -0.636719 L 8.964844 -5.074219 C 9.6875 -5.160156 10.25 -5.472656 10.621094 -5.976562 C 11.035156 -6.582031 11.253906 -7.453125 11.269531 -8.609375 C 11.253906 -9.761719 11.035156 -10.632812 10.621094 -11.242188 C 10.175781 -11.875 9.4375 -12.1875 8.429688 -12.1875 L 1.613281 -12.1875 C 1.480469 -12.1875 1.183594 -12.144531 1.183594 -11.667969 L 1.183594 -10.5 C 1.183594 -10.042969 1.480469 -10 1.613281 -10 L 8.046875 -10 C 8.429688 -10 8.683594 -9.894531 8.828125 -9.671875 C 8.992188 -9.449219 9.066406 -9.097656 9.066406 -8.609375 C 9.066406 -8.121094 8.992188 -7.765625 8.828125 -7.542969 C 8.683594 -7.320312 8.429688 -7.21875 8.046875 -7.21875 L 1.613281 -7.21875 C 1.480469 -7.21875 1.183594 -7.171875 1.183594 -6.714844 L 1.183594 -0.503906 C 1.183594 -0.0429688 1.480469 0.015625 1.613281 0.015625 L 2.957031 0.015625 C 3.089844 0.015625 3.371094 -0.0429688 3.371094 -0.503906 L 3.371094 -5.027344 L 6.492188 -5.027344 L 9.171875 -0.28125 C 9.230469 -0.191406 9.273438 -0.117188 9.332031 -0.0742188 C 9.40625 -0.015625 9.511719 0.015625 9.644531 0.015625 L 11.269531 0.015625 C 11.449219 0.015625 11.582031 -0.105469 11.609375 -0.28125 C 11.625 -0.429688 11.609375 -0.546875 11.550781 -0.636719 Z M 11.550781 -0.636719 "/></g></g></g><g fill="#97e4ff" fill-opacity="1"><g transform="translate(48.685877, 21.230504)"><g><path d="M 9.109375 -10.8125 C 9.082031 -10.886719 9.050781 -10.972656 9.023438 -11.035156 C 8.785156 -11.804688 8.074219 -12.351562 7.261719 -12.351562 C 6.890625 -12.351562 6.539062 -12.246094 6.242188 -12.039062 C 6.152344 -11.996094 6.078125 -11.9375 6.019531 -11.890625 C 5.796875 -11.699219 5.574219 -11.34375 5.367188 -10.8125 L 1.242188 -0.5625 C 1.199219 -0.429688 1.183594 -0.296875 1.210938 -0.207031 C 1.226562 -0.117188 1.300781 0.015625 1.539062 0.015625 L 3.164062 0.015625 C 3.359375 0.015625 3.503906 -0.105469 3.578125 -0.296875 L 4.421875 -2.410156 L 7.660156 -2.410156 C 7.824219 -2.410156 7.972656 -2.484375 8.046875 -2.617188 C 8.136719 -2.734375 8.148438 -2.898438 8.105469 -3.046875 L 7.574219 -4.363281 C 7.5 -4.539062 7.335938 -4.660156 7.144531 -4.660156 L 5.308594 -4.660156 L 7.203125 -9.449219 C 7.21875 -9.480469 7.234375 -9.496094 7.234375 -9.496094 L 7.292969 -9.496094 C 7.292969 -9.496094 7.292969 -9.496094 7.304688 -9.464844 L 10.972656 -0.3125 C 11.046875 -0.105469 11.195312 0.015625 11.402344 0.015625 L 12.984375 0.015625 C 13.222656 0.015625 13.28125 -0.132812 13.3125 -0.207031 C 13.339844 -0.296875 13.328125 -0.429688 13.265625 -0.5625 Z M 9.109375 -10.8125 "/></g></g></g><g fill="#97e4ff" fill-opacity="1"><g transform="translate(62.466486, 21.230504)"><g><path d="M 2.957031 -12.1875 L 1.597656 -12.1875 C 1.480469 -12.1875 1.183594 -12.128906 1.183594 -11.667969 L 1.183594 -0.503906 C 1.183594 -0.0429688 1.480469 0.015625 1.597656 0.015625 L 2.957031 0.015625 C 3.078125 0.015625 3.371094 -0.0429688 3.371094 -0.503906 L 3.371094 -11.667969 C 3.371094 -12.128906 3.078125 -12.1875 2.957031 -12.1875 Z M 2.957031 -12.1875 "/></g></g></g><g fill="#97e4ff" fill-opacity="1"><g transform="translate(66.280901, 21.230504)"><g><path d="M 11.65625 -12.1875 L 10.339844 -12.1875 C 10.207031 -12.1875 9.925781 -12.144531 9.925781 -11.667969 L 9.925781 -2.78125 C 9.925781 -2.765625 9.925781 -2.765625 9.925781 -2.75 L 9.851562 -2.75 C 9.835938 -2.75 9.820312 -2.75 9.804688 -2.796875 L 5.132812 -11.109375 C 5.015625 -11.328125 4.910156 -11.507812 4.808594 -11.640625 C 4.703125 -11.789062 4.601562 -11.90625 4.496094 -11.980469 C 4.378906 -12.070312 4.246094 -12.128906 4.082031 -12.15625 C 3.933594 -12.171875 3.757812 -12.1875 3.566406 -12.1875 L 2.457031 -12.1875 C 2.027344 -12.1875 1.699219 -12.039062 1.492188 -11.773438 C 1.285156 -11.492188 1.183594 -11.003906 1.183594 -10.28125 L 1.183594 -0.503906 C 1.183594 -0.0429688 1.480469 0.015625 1.613281 0.015625 L 2.929688 0.015625 C 3.0625 0.015625 3.34375 -0.0429688 3.34375 -0.503906 L 3.34375 -9.390625 C 3.34375 -9.40625 3.34375 -9.421875 3.34375 -9.421875 L 3.417969 -9.421875 C 3.417969 -9.421875 3.429688 -9.421875 3.460938 -9.378906 L 8.148438 -1.066406 C 8.269531 -0.828125 8.386719 -0.652344 8.488281 -0.519531 C 8.59375 -0.371094 8.695312 -0.265625 8.816406 -0.191406 C 8.933594 -0.105469 9.066406 -0.0585938 9.214844 -0.03125 C 9.347656 0 9.511719 0.015625 9.71875 0.015625 L 10.796875 0.015625 C 11.226562 0.015625 11.550781 -0.132812 11.757812 -0.414062 C 11.964844 -0.679688 12.070312 -1.167969 12.070312 -1.894531 L 12.070312 -11.667969 C 12.070312 -12.144531 11.773438 -12.1875 11.65625 -12.1875 Z M 11.65625 -12.1875 "/></g></g></g><g fill="#97e4ff" fill-opacity="1"><g transform="translate(78.789862, 21.230504)"><g><path d="M 11.402344 -12.1875 L 1.613281 -12.1875 C 1.480469 -12.1875 1.183594 -12.144531 1.183594 -11.683594 L 1.183594 -10.53125 C 1.183594 -10.042969 1.480469 -10 1.613281 -10 L 5.414062 -10 L 5.414062 -0.503906 C 5.414062 -0.0429688 5.710938 0 5.828125 0 L 7.1875 0 C 7.320312 0 7.601562 -0.0429688 7.601562 -0.503906 L 7.601562 -10 L 11.402344 -10 C 11.535156 -10 11.832031 -10.042969 11.832031 -10.53125 L 11.832031 -11.683594 C 11.832031 -12.144531 11.535156 -12.1875 11.402344 -12.1875 Z M 11.402344 -12.1875 "/></g></g></g><g fill="#97e4ff" fill-opacity="1"><g transform="translate(91.062232, 21.230504)"><g><path d="M 10.074219 -2.648438 L 4.867188 -2.648438 C 4.554688 -2.648438 4.304688 -2.691406 4.097656 -2.75 C 3.90625 -2.824219 3.773438 -2.929688 3.652344 -3.078125 C 3.535156 -3.238281 3.445312 -3.460938 3.402344 -3.742188 C 3.386719 -3.816406 3.386719 -3.917969 3.371094 -3.992188 C 3.371094 -3.992188 3.386719 -5.058594 3.402344 -5.058594 L 10.011719 -5.058594 C 10.132812 -5.058594 10.425781 -5.117188 10.425781 -5.574219 L 10.425781 -6.746094 C 10.425781 -7.203125 10.132812 -7.246094 10.011719 -7.246094 L 2.382812 -7.234375 C 1.953125 -7.203125 1.582031 -6.980469 1.375 -6.613281 C 1.300781 -6.492188 1.242188 -6.375 1.210938 -6.242188 L 1.183594 -4.378906 L 1.183594 -4.304688 C 1.199219 -3.609375 1.273438 -3.015625 1.375 -2.527344 C 1.507812 -1.9375 1.730469 -1.449219 2.011719 -1.078125 C 2.308594 -0.695312 2.691406 -0.429688 3.164062 -0.265625 C 3.625 -0.0898438 4.171875 -0.015625 4.820312 -0.015625 L 10.074219 -0.015625 C 10.207031 -0.015625 10.5 -0.0585938 10.5 -0.519531 L 10.5 -2.144531 C 10.5 -2.601562 10.207031 -2.648438 10.074219 -2.648438 Z M 10.085938 -12.21875 L 1.582031 -12.21875 C 1.464844 -12.21875 1.183594 -12.15625 1.183594 -11.683594 L 1.183594 -10.53125 C 1.183594 -10.074219 1.464844 -10.027344 1.582031 -10.027344 L 10.085938 -10.011719 C 10.207031 -10.011719 10.5 -10.074219 10.5 -10.53125 L 10.5 -11.699219 C 10.5 -12.15625 10.207031 -12.21875 10.085938 -12.21875 Z M 10.085938 -12.21875 "/></g></g></g><g fill="#97e4ff" fill-opacity="1"><g transform="translate(102.003805, 21.230504)"><g><path d="M 10.21875 -12.1875 L 4.835938 -12.1875 C 4.1875 -12.1875 3.625 -12.097656 3.164062 -11.9375 C 2.691406 -11.757812 2.308594 -11.476562 2.027344 -11.109375 C 1.730469 -10.738281 1.507812 -10.25 1.375 -9.65625 C 1.242188 -9.082031 1.183594 -8.371094 1.183594 -7.558594 L 1.183594 -4.628906 C 1.183594 -3.800781 1.242188 -3.089844 1.375 -2.5 C 1.507812 -1.921875 1.730469 -1.433594 2.027344 -1.050781 C 2.320312 -0.679688 2.707031 -0.398438 3.164062 -0.238281 C 3.625 -0.0742188 4.1875 0.015625 4.835938 0.015625 L 10.21875 0.015625 C 10.339844 0.015625 10.632812 -0.0429688 10.632812 -0.503906 L 10.632812 -1.671875 C 10.632812 -2.128906 10.339844 -2.1875 10.21875 -2.1875 L 4.910156 -2.1875 C 4.601562 -2.1875 4.332031 -2.21875 4.140625 -2.292969 C 3.949219 -2.351562 3.816406 -2.457031 3.699219 -2.617188 C 3.578125 -2.765625 3.503906 -2.988281 3.445312 -3.269531 C 3.402344 -3.566406 3.371094 -3.933594 3.371094 -4.378906 L 3.371094 -7.824219 C 3.371094 -8.269531 3.402344 -8.636719 3.445312 -8.917969 C 3.503906 -9.199219 3.578125 -9.40625 3.699219 -9.570312 C 3.816406 -9.730469 3.949219 -9.835938 4.140625 -9.894531 C 4.332031 -9.96875 4.601562 -10 4.910156 -10 L 10.21875 -10 C 10.339844 -10 10.632812 -10.058594 10.632812 -10.53125 L 10.632812 -11.667969 C 10.632812 -12.128906 10.339844 -12.1875 10.21875 -12.1875 Z M 10.21875 -12.1875 "/></g></g></g><g fill="#97e4ff" fill-opacity="1"><g transform="translate(113.078459, 21.230504)"><g><path d="M 10.738281 -12.1875 L 9.378906 -12.1875 C 9.257812 -12.1875 8.976562 -12.128906 8.976562 -11.667969 L 8.976562 -7.246094 L 3.371094 -7.246094 L 3.371094 -11.667969 C 3.371094 -12.128906 3.089844 -12.1875 2.957031 -12.1875 L 1.613281 -12.1875 C 1.480469 -12.1875 1.183594 -12.128906 1.183594 -11.667969 L 1.183594 -0.503906 C 1.183594 -0.0429688 1.480469 0.015625 1.613281 0.015625 L 2.957031 0.015625 C 3.089844 0.015625 3.371094 -0.0429688 3.371094 -0.503906 L 3.371094 -5.058594 L 8.976562 -5.058594 L 8.976562 -0.503906 C 8.976562 -0.0429688 9.257812 0.015625 9.378906 0.015625 L 10.738281 0.015625 C 10.871094 0.015625 11.167969 -0.0429688 11.167969 -0.503906 L 11.167969 -11.667969 C 11.167969 -12.128906 10.871094 -12.1875 10.738281 -12.1875 Z M 10.738281 -12.1875 "/></g></g></g><g fill="#0cc0df" fill-opacity="1"><g transform="translate(1.31613, 28.623073)"><g><path d="M 0.953125 0 C 0.859375 0 0.78125 -0.03125 0.71875 -0.09375 C 0.65625 -0.15625 0.625 -0.234375 0.625 -0.328125 L 0.625 -4.578125 C 0.625 -4.671875 0.65625 -4.75 0.71875 -4.8125 C 0.78125 -4.875 0.859375 -4.90625 0.953125 -4.90625 C 0.992188 -4.90625 1.035156 -4.894531 1.078125 -4.875 C 1.128906 -4.851562 1.171875 -4.820312 1.203125 -4.78125 L 3.9375 -1.140625 L 3.9375 -4.578125 C 3.9375 -4.671875 3.96875 -4.75 4.03125 -4.8125 C 4.09375 -4.875 4.171875 -4.90625 4.265625 -4.90625 C 4.359375 -4.90625 4.429688 -4.875 4.484375 -4.8125 C 4.546875 -4.75 4.578125 -4.671875 4.578125 -4.578125 L 4.578125 -0.328125 C 4.578125 -0.234375 4.546875 -0.15625 4.484375 -0.09375 C 4.429688 -0.03125 4.359375 0 4.265625 0 C 4.222656 0 4.175781 -0.0078125 4.125 -0.03125 C 4.070312 -0.0507812 4.035156 -0.078125 4.015625 -0.109375 L 1.28125 -3.75 L 1.28125 -0.328125 C 1.28125 -0.234375 1.25 -0.15625 1.1875 -0.09375 C 1.125 -0.03125 1.046875 0 0.953125 0 Z M 0.953125 0 "/></g></g></g><g fill="#0cc0df" fill-opacity="1"><g transform="translate(8.104099, 28.623073)"><g><path d="M 3.65625 -1.765625 C 3.65625 -1.691406 3.625 -1.628906 3.5625 -1.578125 C 3.507812 -1.523438 3.441406 -1.5 3.359375 -1.5 L 0.96875 -1.5 C 1.019531 -1.207031 1.15625 -0.96875 1.375 -0.78125 C 1.59375 -0.601562 1.859375 -0.515625 2.171875 -0.515625 C 2.304688 -0.515625 2.441406 -0.535156 2.578125 -0.578125 C 2.710938 -0.628906 2.820312 -0.6875 2.90625 -0.75 C 2.96875 -0.800781 3.035156 -0.828125 3.109375 -0.828125 C 3.191406 -0.828125 3.253906 -0.804688 3.296875 -0.765625 C 3.378906 -0.703125 3.421875 -0.628906 3.421875 -0.546875 C 3.421875 -0.472656 3.382812 -0.410156 3.3125 -0.359375 C 3.175781 -0.242188 3 -0.148438 2.78125 -0.078125 C 2.570312 -0.00390625 2.367188 0.03125 2.171875 0.03125 C 1.835938 0.03125 1.53125 -0.0390625 1.25 -0.1875 C 0.976562 -0.34375 0.765625 -0.550781 0.609375 -0.8125 C 0.460938 -1.082031 0.390625 -1.382812 0.390625 -1.71875 C 0.390625 -2.050781 0.460938 -2.347656 0.609375 -2.609375 C 0.753906 -2.878906 0.953125 -3.085938 1.203125 -3.234375 C 1.460938 -3.378906 1.753906 -3.453125 2.078125 -3.453125 C 2.398438 -3.453125 2.675781 -3.378906 2.90625 -3.234375 C 3.144531 -3.097656 3.328125 -2.898438 3.453125 -2.640625 C 3.585938 -2.390625 3.65625 -2.097656 3.65625 -1.765625 Z M 2.078125 -2.921875 C 1.773438 -2.921875 1.53125 -2.835938 1.34375 -2.671875 C 1.15625 -2.503906 1.035156 -2.28125 0.984375 -2 L 3.078125 -2 C 3.035156 -2.28125 2.925781 -2.503906 2.75 -2.671875 C 2.582031 -2.835938 2.359375 -2.921875 2.078125 -2.921875 Z M 2.078125 -2.921875 "/></g></g></g><g fill="#0cc0df" fill-opacity="1"><g transform="translate(13.57847, 28.623073)"><g><path d="M 3.390625 -3.4375 C 3.492188 -3.4375 3.570312 -3.40625 3.625 -3.34375 C 3.6875 -3.289062 3.71875 -3.21875 3.71875 -3.125 L 3.71875 -0.328125 C 3.71875 -0.234375 3.6875 -0.15625 3.625 -0.09375 C 3.570312 -0.03125 3.492188 0 3.390625 0 C 3.304688 0 3.234375 -0.03125 3.171875 -0.09375 C 3.109375 -0.15625 3.078125 -0.234375 3.078125 -0.328125 L 3.078125 -0.390625 C 2.941406 -0.253906 2.78125 -0.148438 2.59375 -0.078125 C 2.414062 -0.00390625 2.222656 0.03125 2.015625 0.03125 C 1.722656 0.03125 1.460938 -0.03125 1.234375 -0.15625 C 1.003906 -0.28125 0.820312 -0.460938 0.6875 -0.703125 C 0.5625 -0.941406 0.5 -1.234375 0.5 -1.578125 L 0.5 -3.125 C 0.5 -3.21875 0.523438 -3.289062 0.578125 -3.34375 C 0.640625 -3.40625 0.71875 -3.4375 0.8125 -3.4375 C 0.90625 -3.4375 0.984375 -3.40625 1.046875 -3.34375 C 1.109375 -3.289062 1.140625 -3.21875 1.140625 -3.125 L 1.140625 -1.578125 C 1.140625 -1.234375 1.226562 -0.972656 1.40625 -0.796875 C 1.59375 -0.628906 1.835938 -0.546875 2.140625 -0.546875 C 2.316406 -0.546875 2.472656 -0.582031 2.609375 -0.65625 C 2.753906 -0.726562 2.867188 -0.820312 2.953125 -0.9375 C 3.035156 -1.0625 3.078125 -1.195312 3.078125 -1.34375 L 3.078125 -3.125 C 3.078125 -3.21875 3.109375 -3.289062 3.171875 -3.34375 C 3.234375 -3.40625 3.304688 -3.4375 3.390625 -3.4375 Z M 3.390625 -3.4375 "/></g></g></g><g fill="#0cc0df" fill-opacity="1"><g transform="translate(19.436232, 28.623073)"><g><path d="M 2.25 -3.46875 C 2.46875 -3.46875 2.640625 -3.429688 2.765625 -3.359375 C 2.890625 -3.296875 2.953125 -3.21875 2.953125 -3.125 C 2.953125 -3.09375 2.953125 -3.070312 2.953125 -3.0625 C 2.910156 -2.925781 2.828125 -2.859375 2.703125 -2.859375 C 2.679688 -2.859375 2.648438 -2.863281 2.609375 -2.875 C 2.441406 -2.90625 2.304688 -2.921875 2.203125 -2.921875 C 1.898438 -2.921875 1.65625 -2.847656 1.46875 -2.703125 C 1.28125 -2.566406 1.1875 -2.378906 1.1875 -2.140625 L 1.1875 -0.3125 C 1.1875 -0.207031 1.160156 -0.128906 1.109375 -0.078125 C 1.054688 -0.0234375 0.976562 0 0.875 0 C 0.78125 0 0.703125 -0.0234375 0.640625 -0.078125 C 0.585938 -0.128906 0.5625 -0.207031 0.5625 -0.3125 L 0.5625 -3.125 C 0.5625 -3.21875 0.585938 -3.289062 0.640625 -3.34375 C 0.703125 -3.40625 0.78125 -3.4375 0.875 -3.4375 C 1.082031 -3.4375 1.1875 -3.332031 1.1875 -3.125 L 1.1875 -3 C 1.3125 -3.144531 1.46875 -3.257812 1.65625 -3.34375 C 1.84375 -3.425781 2.039062 -3.46875 2.25 -3.46875 Z M 2.25 -3.46875 "/></g></g></g><g fill="#0cc0df" fill-opacity="1"><g transform="translate(24.062107, 28.623073)"><g><path d="M 2.125 -3.453125 C 2.445312 -3.453125 2.738281 -3.375 3 -3.21875 C 3.257812 -3.070312 3.460938 -2.863281 3.609375 -2.59375 C 3.765625 -2.332031 3.84375 -2.039062 3.84375 -1.71875 L 3.84375 -0.3125 C 3.84375 -0.21875 3.8125 -0.140625 3.75 -0.078125 C 3.695312 -0.0234375 3.625 0 3.53125 0 C 3.4375 0 3.359375 -0.0234375 3.296875 -0.078125 C 3.234375 -0.140625 3.203125 -0.21875 3.203125 -0.3125 L 3.203125 -0.546875 C 3.054688 -0.367188 2.878906 -0.226562 2.671875 -0.125 C 2.460938 -0.0195312 2.238281 0.03125 2 0.03125 C 1.695312 0.03125 1.421875 -0.0390625 1.171875 -0.1875 C 0.929688 -0.34375 0.738281 -0.550781 0.59375 -0.8125 C 0.457031 -1.082031 0.390625 -1.382812 0.390625 -1.71875 C 0.390625 -2.039062 0.460938 -2.332031 0.609375 -2.59375 C 0.765625 -2.863281 0.972656 -3.070312 1.234375 -3.21875 C 1.503906 -3.375 1.800781 -3.453125 2.125 -3.453125 Z M 2.125 -0.546875 C 2.332031 -0.546875 2.519531 -0.59375 2.6875 -0.6875 C 2.863281 -0.789062 3 -0.929688 3.09375 -1.109375 C 3.1875 -1.285156 3.234375 -1.488281 3.234375 -1.71875 C 3.234375 -1.9375 3.1875 -2.132812 3.09375 -2.3125 C 3 -2.5 2.863281 -2.640625 2.6875 -2.734375 C 2.519531 -2.835938 2.332031 -2.890625 2.125 -2.890625 C 1.914062 -2.890625 1.722656 -2.835938 1.546875 -2.734375 C 1.378906 -2.640625 1.242188 -2.5 1.140625 -2.3125 C 1.046875 -2.132812 1 -1.9375 1 -1.71875 C 1 -1.488281 1.046875 -1.285156 1.140625 -1.109375 C 1.242188 -0.929688 1.378906 -0.789062 1.546875 -0.6875 C 1.722656 -0.59375 1.914062 -0.546875 2.125 -0.546875 Z M 2.125 -0.546875 "/></g></g></g><g fill="#0cc0df" fill-opacity="1"><g transform="translate(29.875873, 28.623073)"><g><path d="M 1.375 0 C 1.195312 0 1.035156 -0.046875 0.890625 -0.140625 C 0.742188 -0.242188 0.628906 -0.382812 0.546875 -0.5625 C 0.472656 -0.738281 0.4375 -0.9375 0.4375 -1.15625 L 0.4375 -4.59375 C 0.4375 -4.6875 0.460938 -4.757812 0.515625 -4.8125 C 0.578125 -4.875 0.65625 -4.90625 0.75 -4.90625 C 0.84375 -4.90625 0.914062 -4.875 0.96875 -4.8125 C 1.03125 -4.757812 1.0625 -4.6875 1.0625 -4.59375 L 1.0625 -1.15625 C 1.0625 -1 1.09375 -0.867188 1.15625 -0.765625 C 1.21875 -0.671875 1.289062 -0.625 1.375 -0.625 L 1.53125 -0.625 C 1.625 -0.625 1.695312 -0.59375 1.75 -0.53125 C 1.800781 -0.476562 1.828125 -0.40625 1.828125 -0.3125 C 1.828125 -0.21875 1.785156 -0.140625 1.703125 -0.078125 C 1.617188 -0.0234375 1.515625 0 1.390625 0 Z M 1.375 0 "/></g></g></g><g fill="#0cc0df" fill-opacity="1"><g transform="translate(33.332701, 28.623073)"><g/></g></g><g fill="#0cc0df" fill-opacity="1"><g transform="translate(36.745534, 28.623073)"><g><path d="M 1.25 1.46875 C 1.15625 1.46875 1.078125 1.4375 1.015625 1.375 C 0.953125 1.3125 0.921875 1.238281 0.921875 1.15625 L 0.921875 -4.578125 C 0.921875 -4.671875 0.953125 -4.75 1.015625 -4.8125 C 1.078125 -4.875 1.15625 -4.90625 1.25 -4.90625 C 1.332031 -4.90625 1.40625 -4.875 1.46875 -4.8125 C 1.53125 -4.75 1.5625 -4.671875 1.5625 -4.578125 L 1.5625 1.15625 C 1.5625 1.238281 1.53125 1.3125 1.46875 1.375 C 1.40625 1.4375 1.332031 1.46875 1.25 1.46875 Z M 1.25 1.46875 "/></g></g></g><g fill="#0cc0df" fill-opacity="1"><g transform="translate(40.774315, 28.623073)"><g/></g></g><g fill="#0cc0df" fill-opacity="1"><g transform="translate(44.187148, 28.623073)"><g><path d="M 0.953125 0 C 0.867188 0 0.789062 -0.03125 0.71875 -0.09375 C 0.65625 -0.15625 0.625 -0.234375 0.625 -0.328125 L 0.625 -4.578125 C 0.625 -4.671875 0.65625 -4.75 0.71875 -4.8125 C 0.789062 -4.875 0.867188 -4.90625 0.953125 -4.90625 C 1.046875 -4.90625 1.125 -4.875 1.1875 -4.8125 C 1.25 -4.75 1.28125 -4.671875 1.28125 -4.578125 L 1.28125 -2.6875 L 3.359375 -4.78125 C 3.410156 -4.820312 3.457031 -4.851562 3.5 -4.875 C 3.539062 -4.894531 3.582031 -4.90625 3.625 -4.90625 C 3.71875 -4.90625 3.785156 -4.878906 3.828125 -4.828125 C 3.878906 -4.773438 3.90625 -4.710938 3.90625 -4.640625 C 3.90625 -4.523438 3.863281 -4.429688 3.78125 -4.359375 L 2.1875 -2.75 L 3.8125 -0.515625 C 3.851562 -0.460938 3.875 -0.398438 3.875 -0.328125 C 3.875 -0.234375 3.847656 -0.15625 3.796875 -0.09375 C 3.742188 -0.03125 3.675781 0 3.59375 0 C 3.476562 0 3.390625 -0.046875 3.328125 -0.140625 L 1.734375 -2.296875 L 1.28125 -1.84375 L 1.28125 -0.328125 C 1.28125 -0.234375 1.25 -0.15625 1.1875 -0.09375 C 1.125 -0.03125 1.046875 0 0.953125 0 Z M 0.953125 0 "/></g></g></g><g fill="#0cc0df" fill-opacity="1"><g transform="translate(49.950636, 28.623073)"><g><path d="M 2.28125 -3.46875 C 2.5625 -3.46875 2.816406 -3.40625 3.046875 -3.28125 C 3.273438 -3.15625 3.453125 -2.972656 3.578125 -2.734375 C 3.710938 -2.492188 3.78125 -2.203125 3.78125 -1.859375 L 3.78125 -0.3125 C 3.78125 -0.21875 3.75 -0.140625 3.6875 -0.078125 C 3.632812 -0.0234375 3.5625 0 3.46875 0 C 3.375 0 3.296875 -0.0234375 3.234375 -0.078125 C 3.171875 -0.140625 3.140625 -0.21875 3.140625 -0.3125 L 3.140625 -1.859375 C 3.140625 -2.203125 3.046875 -2.457031 2.859375 -2.625 C 2.679688 -2.800781 2.441406 -2.890625 2.140625 -2.890625 C 1.972656 -2.890625 1.816406 -2.851562 1.671875 -2.78125 C 1.523438 -2.707031 1.410156 -2.609375 1.328125 -2.484375 C 1.242188 -2.367188 1.203125 -2.234375 1.203125 -2.078125 L 1.203125 -0.3125 C 1.203125 -0.21875 1.171875 -0.140625 1.109375 -0.078125 C 1.054688 -0.0234375 0.984375 0 0.890625 0 C 0.796875 0 0.71875 -0.0234375 0.65625 -0.078125 C 0.59375 -0.140625 0.5625 -0.21875 0.5625 -0.3125 L 0.5625 -3.109375 C 0.5625 -3.210938 0.59375 -3.289062 0.65625 -3.34375 C 0.71875 -3.40625 0.796875 -3.4375 0.890625 -3.4375 C 0.984375 -3.4375 1.054688 -3.40625 1.109375 -3.34375 C 1.171875 -3.289062 1.203125 -3.210938 1.203125 -3.109375 L 1.203125 -3.046875 C 1.335938 -3.179688 1.492188 -3.285156 1.671875 -3.359375 C 1.859375 -3.429688 2.0625 -3.46875 2.28125 -3.46875 Z M 2.28125 -3.46875 "/></g></g></g><g fill="#0cc0df" fill-opacity="1"><g transform="translate(55.808398, 28.623073)"><g><path d="M 2.125 0.03125 C 1.789062 0.03125 1.488281 -0.0390625 1.21875 -0.1875 C 0.957031 -0.34375 0.753906 -0.550781 0.609375 -0.8125 C 0.460938 -1.082031 0.390625 -1.382812 0.390625 -1.71875 C 0.390625 -2.050781 0.460938 -2.347656 0.609375 -2.609375 C 0.753906 -2.878906 0.957031 -3.085938 1.21875 -3.234375 C 1.488281 -3.378906 1.789062 -3.453125 2.125 -3.453125 C 2.457031 -3.453125 2.753906 -3.378906 3.015625 -3.234375 C 3.273438 -3.085938 3.476562 -2.878906 3.625 -2.609375 C 3.769531 -2.347656 3.84375 -2.050781 3.84375 -1.71875 C 3.84375 -1.382812 3.769531 -1.082031 3.625 -0.8125 C 3.476562 -0.550781 3.273438 -0.34375 3.015625 -0.1875 C 2.753906 -0.0390625 2.457031 0.03125 2.125 0.03125 Z M 2.125 -0.546875 C 2.332031 -0.546875 2.519531 -0.59375 2.6875 -0.6875 C 2.863281 -0.789062 3 -0.929688 3.09375 -1.109375 C 3.1875 -1.285156 3.234375 -1.488281 3.234375 -1.71875 C 3.234375 -1.9375 3.1875 -2.132812 3.09375 -2.3125 C 3 -2.5 2.863281 -2.640625 2.6875 -2.734375 C 2.519531 -2.835938 2.332031 -2.890625 2.125 -2.890625 C 1.90625 -2.890625 1.710938 -2.835938 1.546875 -2.734375 C 1.378906 -2.640625 1.242188 -2.5 1.140625 -2.3125 C 1.046875 -2.132812 1 -1.9375 1 -1.71875 C 1 -1.488281 1.046875 -1.285156 1.140625 -1.109375 C 1.242188 -0.929688 1.378906 -0.789062 1.546875 -0.6875 C 1.710938 -0.59375 1.90625 -0.546875 2.125 -0.546875 Z M 2.125 -0.546875 "/></g></g></g><g fill="#0cc0df" fill-opacity="1"><g transform="translate(61.622164, 28.623073)"><g><path d="M 4.21875 -3.4375 C 4.300781 -3.4375 4.363281 -3.410156 4.40625 -3.359375 C 4.457031 -3.316406 4.484375 -3.253906 4.484375 -3.171875 C 4.484375 -3.109375 4.472656 -3.050781 4.453125 -3 L 3.515625 -0.203125 C 3.492188 -0.148438 3.457031 -0.101562 3.40625 -0.0625 C 3.351562 -0.0195312 3.289062 0 3.21875 0 C 3.144531 0 3.082031 -0.0195312 3.03125 -0.0625 C 2.976562 -0.101562 2.941406 -0.148438 2.921875 -0.203125 L 2.3125 -2.484375 L 1.65625 -0.203125 C 1.632812 -0.148438 1.59375 -0.101562 1.53125 -0.0625 C 1.476562 -0.0195312 1.421875 0 1.359375 0 C 1.285156 0 1.222656 -0.0195312 1.171875 -0.0625 C 1.117188 -0.101562 1.082031 -0.148438 1.0625 -0.203125 L 0.125 -3 C 0.101562 -3.050781 0.09375 -3.109375 0.09375 -3.171875 C 0.09375 -3.347656 0.179688 -3.4375 0.359375 -3.4375 C 0.441406 -3.4375 0.507812 -3.410156 0.5625 -3.359375 C 0.613281 -3.316406 0.65625 -3.242188 0.6875 -3.140625 L 1.375 -1.03125 L 2.015625 -3.203125 C 2.035156 -3.265625 2.070312 -3.316406 2.125 -3.359375 C 2.175781 -3.410156 2.242188 -3.4375 2.328125 -3.4375 C 2.398438 -3.4375 2.460938 -3.410156 2.515625 -3.359375 C 2.566406 -3.316406 2.601562 -3.265625 2.625 -3.203125 L 3.203125 -0.984375 L 3.890625 -3.140625 C 3.941406 -3.335938 4.050781 -3.4375 4.21875 -3.4375 Z M 4.21875 -3.4375 "/></g></g></g><g fill="#0cc0df" fill-opacity="1"><g transform="translate(67.76905, 28.623073)"><g><path d="M 1.375 0 C 1.195312 0 1.035156 -0.046875 0.890625 -0.140625 C 0.742188 -0.242188 0.628906 -0.382812 0.546875 -0.5625 C 0.472656 -0.738281 0.4375 -0.9375 0.4375 -1.15625 L 0.4375 -4.59375 C 0.4375 -4.6875 0.460938 -4.757812 0.515625 -4.8125 C 0.578125 -4.875 0.65625 -4.90625 0.75 -4.90625 C 0.84375 -4.90625 0.914062 -4.875 0.96875 -4.8125 C 1.03125 -4.757812 1.0625 -4.6875 1.0625 -4.59375 L 1.0625 -1.15625 C 1.0625 -1 1.09375 -0.867188 1.15625 -0.765625 C 1.21875 -0.671875 1.289062 -0.625 1.375 -0.625 L 1.53125 -0.625 C 1.625 -0.625 1.695312 -0.59375 1.75 -0.53125 C 1.800781 -0.476562 1.828125 -0.40625 1.828125 -0.3125 C 1.828125 -0.21875 1.785156 -0.140625 1.703125 -0.078125 C 1.617188 -0.0234375 1.515625 0 1.390625 0 Z M 1.375 0 "/></g></g></g><g fill="#0cc0df" fill-opacity="1"><g transform="translate(71.225879, 28.623073)"><g><path d="M 3.65625 -1.765625 C 3.65625 -1.691406 3.625 -1.628906 3.5625 -1.578125 C 3.507812 -1.523438 3.441406 -1.5 3.359375 -1.5 L 0.96875 -1.5 C 1.019531 -1.207031 1.15625 -0.96875 1.375 -0.78125 C 1.59375 -0.601562 1.859375 -0.515625 2.171875 -0.515625 C 2.304688 -0.515625 2.441406 -0.535156 2.578125 -0.578125 C 2.710938 -0.628906 2.820312 -0.6875 2.90625 -0.75 C 2.96875 -0.800781 3.035156 -0.828125 3.109375 -0.828125 C 3.191406 -0.828125 3.253906 -0.804688 3.296875 -0.765625 C 3.378906 -0.703125 3.421875 -0.628906 3.421875 -0.546875 C 3.421875 -0.472656 3.382812 -0.410156 3.3125 -0.359375 C 3.175781 -0.242188 3 -0.148438 2.78125 -0.078125 C 2.570312 -0.00390625 2.367188 0.03125 2.171875 0.03125 C 1.835938 0.03125 1.53125 -0.0390625 1.25 -0.1875 C 0.976562 -0.34375 0.765625 -0.550781 0.609375 -0.8125 C 0.460938 -1.082031 0.390625 -1.382812 0.390625 -1.71875 C 0.390625 -2.050781 0.460938 -2.347656 0.609375 -2.609375 C 0.753906 -2.878906 0.953125 -3.085938 1.203125 -3.234375 C 1.460938 -3.378906 1.753906 -3.453125 2.078125 -3.453125 C 2.398438 -3.453125 2.675781 -3.378906 2.90625 -3.234375 C 3.144531 -3.097656 3.328125 -2.898438 3.453125 -2.640625 C 3.585938 -2.390625 3.65625 -2.097656 3.65625 -1.765625 Z M 2.078125 -2.921875 C 1.773438 -2.921875 1.53125 -2.835938 1.34375 -2.671875 C 1.15625 -2.503906 1.035156 -2.28125 0.984375 -2 L 3.078125 -2 C 3.035156 -2.28125 2.925781 -2.503906 2.75 -2.671875 C 2.582031 -2.835938 2.359375 -2.921875 2.078125 -2.921875 Z M 2.078125 -2.921875 "/></g></g></g><g fill="#0cc0df" fill-opacity="1"><g transform="translate(76.700251, 28.623073)"><g><path d="M 3.53125 -4.90625 C 3.625 -4.90625 3.695312 -4.875 3.75 -4.8125 C 3.8125 -4.757812 3.84375 -4.679688 3.84375 -4.578125 L 3.84375 -1.71875 C 3.84375 -1.394531 3.765625 -1.097656 3.609375 -0.828125 C 3.460938 -0.566406 3.257812 -0.359375 3 -0.203125 C 2.738281 -0.046875 2.445312 0.03125 2.125 0.03125 C 1.800781 0.03125 1.503906 -0.046875 1.234375 -0.203125 C 0.972656 -0.359375 0.765625 -0.566406 0.609375 -0.828125 C 0.460938 -1.097656 0.390625 -1.394531 0.390625 -1.71875 C 0.390625 -2.050781 0.457031 -2.347656 0.59375 -2.609375 C 0.738281 -2.878906 0.929688 -3.085938 1.171875 -3.234375 C 1.421875 -3.378906 1.695312 -3.453125 2 -3.453125 C 2.238281 -3.453125 2.460938 -3.398438 2.671875 -3.296875 C 2.878906 -3.203125 3.054688 -3.066406 3.203125 -2.890625 L 3.203125 -4.578125 C 3.203125 -4.679688 3.234375 -4.757812 3.296875 -4.8125 C 3.359375 -4.875 3.4375 -4.90625 3.53125 -4.90625 Z M 2.125 -0.546875 C 2.332031 -0.546875 2.519531 -0.59375 2.6875 -0.6875 C 2.863281 -0.789062 3 -0.929688 3.09375 -1.109375 C 3.1875 -1.296875 3.234375 -1.5 3.234375 -1.71875 C 3.234375 -1.9375 3.1875 -2.132812 3.09375 -2.3125 C 3 -2.5 2.863281 -2.640625 2.6875 -2.734375 C 2.519531 -2.835938 2.332031 -2.890625 2.125 -2.890625 C 1.914062 -2.890625 1.722656 -2.835938 1.546875 -2.734375 C 1.378906 -2.640625 1.242188 -2.5 1.140625 -2.3125 C 1.046875 -2.132812 1 -1.9375 1 -1.71875 C 1 -1.5 1.046875 -1.296875 1.140625 -1.109375 C 1.242188 -0.929688 1.378906 -0.789062 1.546875 -0.6875 C 1.722656 -0.59375 1.914062 -0.546875 2.125 -0.546875 Z M 2.125 -0.546875 "/></g></g></g><g fill="#0cc0df" fill-opacity="1"><g transform="translate(82.690007, 28.623073)"><g><path d="M 2.125 -3.453125 C 2.457031 -3.453125 2.753906 -3.378906 3.015625 -3.234375 C 3.273438 -3.085938 3.476562 -2.878906 3.625 -2.609375 C 3.769531 -2.347656 3.84375 -2.050781 3.84375 -1.71875 L 3.84375 -0.359375 C 3.84375 -0.0234375 3.769531 0.273438 3.625 0.546875 C 3.476562 0.816406 3.269531 1.03125 3 1.1875 C 2.738281 1.34375 2.441406 1.421875 2.109375 1.421875 C 1.804688 1.421875 1.523438 1.359375 1.265625 1.234375 C 1.003906 1.117188 0.785156 0.953125 0.609375 0.734375 C 0.566406 0.671875 0.546875 0.613281 0.546875 0.5625 C 0.546875 0.46875 0.585938 0.390625 0.671875 0.328125 C 0.734375 0.296875 0.796875 0.28125 0.859375 0.28125 C 0.960938 0.28125 1.046875 0.320312 1.109375 0.40625 C 1.222656 0.550781 1.363281 0.660156 1.53125 0.734375 C 1.707031 0.816406 1.90625 0.859375 2.125 0.859375 C 2.332031 0.859375 2.519531 0.804688 2.6875 0.703125 C 2.851562 0.609375 2.984375 0.46875 3.078125 0.28125 C 3.179688 0.09375 3.234375 -0.132812 3.234375 -0.40625 L 3.234375 -0.703125 C 3.109375 -0.472656 2.9375 -0.289062 2.71875 -0.15625 C 2.507812 -0.03125 2.269531 0.03125 2 0.03125 C 1.6875 0.03125 1.40625 -0.0390625 1.15625 -0.1875 C 0.914062 -0.34375 0.726562 -0.550781 0.59375 -0.8125 C 0.457031 -1.082031 0.390625 -1.382812 0.390625 -1.71875 C 0.390625 -2.050781 0.460938 -2.347656 0.609375 -2.609375 C 0.753906 -2.878906 0.957031 -3.085938 1.21875 -3.234375 C 1.488281 -3.378906 1.789062 -3.453125 2.125 -3.453125 Z M 2.125 -0.546875 C 2.332031 -0.546875 2.519531 -0.59375 2.6875 -0.6875 C 2.863281 -0.789062 3 -0.929688 3.09375 -1.109375 C 3.1875 -1.285156 3.234375 -1.488281 3.234375 -1.71875 C 3.234375 -1.9375 3.1875 -2.132812 3.09375 -2.3125 C 3 -2.5 2.863281 -2.640625 2.6875 -2.734375 C 2.519531 -2.835938 2.332031 -2.890625 2.125 -2.890625 C 1.90625 -2.890625 1.710938 -2.835938 1.546875 -2.734375 C 1.378906 -2.640625 1.242188 -2.5 1.140625 -2.3125 C 1.046875 -2.132812 1 -1.9375 1 -1.71875 C 1 -1.488281 1.046875 -1.285156 1.140625 -1.109375 C 1.242188 -0.929688 1.378906 -0.789062 1.546875 -0.6875 C 1.710938 -0.59375 1.90625 -0.546875 2.125 -0.546875 Z M 2.125 -0.546875 "/></g></g></g><g fill="#0cc0df" fill-opacity="1"><g transform="translate(88.503773, 28.623073)"><g><path d="M 3.65625 -1.765625 C 3.65625 -1.691406 3.625 -1.628906 3.5625 -1.578125 C 3.507812 -1.523438 3.441406 -1.5 3.359375 -1.5 L 0.96875 -1.5 C 1.019531 -1.207031 1.15625 -0.96875 1.375 -0.78125 C 1.59375 -0.601562 1.859375 -0.515625 2.171875 -0.515625 C 2.304688 -0.515625 2.441406 -0.535156 2.578125 -0.578125 C 2.710938 -0.628906 2.820312 -0.6875 2.90625 -0.75 C 2.96875 -0.800781 3.035156 -0.828125 3.109375 -0.828125 C 3.191406 -0.828125 3.253906 -0.804688 3.296875 -0.765625 C 3.378906 -0.703125 3.421875 -0.628906 3.421875 -0.546875 C 3.421875 -0.472656 3.382812 -0.410156 3.3125 -0.359375 C 3.175781 -0.242188 3 -0.148438 2.78125 -0.078125 C 2.570312 -0.00390625 2.367188 0.03125 2.171875 0.03125 C 1.835938 0.03125 1.53125 -0.0390625 1.25 -0.1875 C 0.976562 -0.34375 0.765625 -0.550781 0.609375 -0.8125 C 0.460938 -1.082031 0.390625 -1.382812 0.390625 -1.71875 C 0.390625 -2.050781 0.460938 -2.347656 0.609375 -2.609375 C 0.753906 -2.878906 0.953125 -3.085938 1.203125 -3.234375 C 1.460938 -3.378906 1.753906 -3.453125 2.078125 -3.453125 C 2.398438 -3.453125 2.675781 -3.378906 2.90625 -3.234375 C 3.144531 -3.097656 3.328125 -2.898438 3.453125 -2.640625 C 3.585938 -2.390625 3.65625 -2.097656 3.65625 -1.765625 Z M 2.078125 -2.921875 C 1.773438 -2.921875 1.53125 -2.835938 1.34375 -2.671875 C 1.15625 -2.503906 1.035156 -2.28125 0.984375 -2 L 3.078125 -2 C 3.035156 -2.28125 2.925781 -2.503906 2.75 -2.671875 C 2.582031 -2.835938 2.359375 -2.921875 2.078125 -2.921875 Z M 2.078125 -2.921875 "/></g></g></g><g fill="#0cc0df" fill-opacity="1"><g transform="translate(93.978145, 28.623073)"><g/></g></g><g fill="#0cc0df" fill-opacity="1"><g transform="translate(97.390978, 28.623073)"><g><path d="M 1.25 1.46875 C 1.15625 1.46875 1.078125 1.4375 1.015625 1.375 C 0.953125 1.3125 0.921875 1.238281 0.921875 1.15625 L 0.921875 -4.578125 C 0.921875 -4.671875 0.953125 -4.75 1.015625 -4.8125 C 1.078125 -4.875 1.15625 -4.90625 1.25 -4.90625 C 1.332031 -4.90625 1.40625 -4.875 1.46875 -4.8125 C 1.53125 -4.75 1.5625 -4.671875 1.5625 -4.578125 L 1.5625 1.15625 C 1.5625 1.238281 1.53125 1.3125 1.46875 1.375 C 1.40625 1.4375 1.332031 1.46875 1.25 1.46875 Z M 1.25 1.46875 "/></g></g></g><g fill="#0cc0df" fill-opacity="1"><g transform="translate(101.419758, 28.623073)"><g/></g></g><g fill="#0cc0df" fill-opacity="1"><g transform="translate(104.832591, 28.623073)"><g><path d="M 3.75 -4.90625 C 3.84375 -4.90625 3.914062 -4.875 3.96875 -4.8125 C 4.03125 -4.757812 4.0625 -4.691406 4.0625 -4.609375 C 4.0625 -4.515625 4.03125 -4.4375 3.96875 -4.375 C 3.914062 -4.320312 3.84375 -4.296875 3.75 -4.296875 L 2.40625 -4.296875 L 2.40625 -0.328125 C 2.40625 -0.234375 2.375 -0.15625 2.3125 -0.09375 C 2.25 -0.03125 2.171875 0 2.078125 0 C 1.984375 0 1.90625 -0.03125 1.84375 -0.09375 C 1.78125 -0.15625 1.75 -0.234375 1.75 -0.328125 L 1.75 -4.296875 L 0.390625 -4.296875 C 0.304688 -4.296875 0.234375 -4.320312 0.171875 -4.375 C 0.117188 -4.4375 0.09375 -4.515625 0.09375 -4.609375 C 0.09375 -4.691406 0.117188 -4.757812 0.171875 -4.8125 C 0.234375 -4.875 0.304688 -4.90625 0.390625 -4.90625 Z M 3.75 -4.90625 "/></g></g></g><g fill="#0cc0df" fill-opacity="1"><g transform="translate(110.558366, 28.623073)"><g><path d="M 3.65625 -1.765625 C 3.65625 -1.691406 3.625 -1.628906 3.5625 -1.578125 C 3.507812 -1.523438 3.441406 -1.5 3.359375 -1.5 L 0.96875 -1.5 C 1.019531 -1.207031 1.15625 -0.96875 1.375 -0.78125 C 1.59375 -0.601562 1.859375 -0.515625 2.171875 -0.515625 C 2.304688 -0.515625 2.441406 -0.535156 2.578125 -0.578125 C 2.710938 -0.628906 2.820312 -0.6875 2.90625 -0.75 C 2.96875 -0.800781 3.035156 -0.828125 3.109375 -0.828125 C 3.191406 -0.828125 3.253906 -0.804688 3.296875 -0.765625 C 3.378906 -0.703125 3.421875 -0.628906 3.421875 -0.546875 C 3.421875 -0.472656 3.382812 -0.410156 3.3125 -0.359375 C 3.175781 -0.242188 3 -0.148438 2.78125 -0.078125 C 2.570312 -0.00390625 2.367188 0.03125 2.171875 0.03125 C 1.835938 0.03125 1.53125 -0.0390625 1.25 -0.1875 C 0.976562 -0.34375 0.765625 -0.550781 0.609375 -0.8125 C 0.460938 -1.082031 0.390625 -1.382812 0.390625 -1.71875 C 0.390625 -2.050781 0.460938 -2.347656 0.609375 -2.609375 C 0.753906 -2.878906 0.953125 -3.085938 1.203125 -3.234375 C 1.460938 -3.378906 1.753906 -3.453125 2.078125 -3.453125 C 2.398438 -3.453125 2.675781 -3.378906 2.90625 -3.234375 C 3.144531 -3.097656 3.328125 -2.898438 3.453125 -2.640625 C 3.585938 -2.390625 3.65625 -2.097656 3.65625 -1.765625 Z M 2.078125 -2.921875 C 1.773438 -2.921875 1.53125 -2.835938 1.34375 -2.671875 C 1.15625 -2.503906 1.035156 -2.28125 0.984375 -2 L 3.078125 -2 C 3.035156 -2.28125 2.925781 -2.503906 2.75 -2.671875 C 2.582031 -2.835938 2.359375 -2.921875 2.078125 -2.921875 Z M 2.078125 -2.921875 "/></g></g></g><g fill="#0cc0df" fill-opacity="1"><g transform="translate(116.032738, 28.623073)"><g><path d="M 2.125 0.03125 C 1.789062 0.03125 1.488281 -0.0390625 1.21875 -0.1875 C 0.957031 -0.34375 0.753906 -0.550781 0.609375 -0.8125 C 0.460938 -1.082031 0.390625 -1.382812 0.390625 -1.71875 C 0.390625 -2.050781 0.460938 -2.347656 0.609375 -2.609375 C 0.753906 -2.878906 0.957031 -3.085938 1.21875 -3.234375 C 1.476562 -3.378906 1.769531 -3.453125 2.09375 -3.453125 C 2.582031 -3.453125 2.992188 -3.265625 3.328125 -2.890625 C 3.367188 -2.847656 3.390625 -2.796875 3.390625 -2.734375 C 3.390625 -2.640625 3.34375 -2.5625 3.25 -2.5 C 3.207031 -2.46875 3.160156 -2.453125 3.109375 -2.453125 C 3.003906 -2.453125 2.921875 -2.488281 2.859375 -2.5625 C 2.753906 -2.675781 2.640625 -2.757812 2.515625 -2.8125 C 2.390625 -2.863281 2.25 -2.890625 2.09375 -2.890625 C 1.769531 -2.890625 1.503906 -2.78125 1.296875 -2.5625 C 1.097656 -2.351562 1 -2.070312 1 -1.71875 C 1 -1.488281 1.046875 -1.285156 1.140625 -1.109375 C 1.234375 -0.929688 1.363281 -0.789062 1.53125 -0.6875 C 1.707031 -0.59375 1.90625 -0.546875 2.125 -0.546875 C 2.40625 -0.546875 2.632812 -0.617188 2.8125 -0.765625 C 2.894531 -0.816406 2.972656 -0.84375 3.046875 -0.84375 C 3.109375 -0.84375 3.160156 -0.828125 3.203125 -0.796875 C 3.285156 -0.722656 3.328125 -0.644531 3.328125 -0.5625 C 3.328125 -0.5 3.300781 -0.441406 3.25 -0.390625 C 2.945312 -0.109375 2.570312 0.03125 2.125 0.03125 Z M 2.125 0.03125 "/></g></g></g><g fill="#0cc0df" fill-opacity="1"><g transform="translate(121.381404, 28.623073)"><g><path d="M 2.28125 -3.46875 C 2.5625 -3.46875 2.816406 -3.40625 3.046875 -3.28125 C 3.273438 -3.15625 3.453125 -2.972656 3.578125 -2.734375 C 3.710938 -2.492188 3.78125 -2.203125 3.78125 -1.859375 L 3.78125 -0.3125 C 3.78125 -0.21875 3.75 -0.140625 3.6875 -0.078125 C 3.632812 -0.0234375 3.5625 0 3.46875 0 C 3.375 0 3.296875 -0.0234375 3.234375 -0.078125 C 3.171875 -0.140625 3.140625 -0.21875 3.140625 -0.3125 L 3.140625 -1.859375 C 3.140625 -2.203125 3.046875 -2.457031 2.859375 -2.625 C 2.679688 -2.800781 2.441406 -2.890625 2.140625 -2.890625 C 1.972656 -2.890625 1.816406 -2.851562 1.671875 -2.78125 C 1.523438 -2.707031 1.410156 -2.609375 1.328125 -2.484375 C 1.242188 -2.367188 1.203125 -2.234375 1.203125 -2.078125 L 1.203125 -0.3125 C 1.203125 -0.21875 1.171875 -0.140625 1.109375 -0.078125 C 1.054688 -0.0234375 0.984375 0 0.890625 0 C 0.796875 0 0.71875 -0.0234375 0.65625 -0.078125 C 0.59375 -0.140625 0.5625 -0.21875 0.5625 -0.3125 L 0.5625 -4.578125 C 0.5625 -4.679688 0.59375 -4.757812 0.65625 -4.8125 C 0.71875 -4.875 0.796875 -4.90625 0.890625 -4.90625 C 0.984375 -4.90625 1.054688 -4.875 1.109375 -4.8125 C 1.171875 -4.757812 1.203125 -4.679688 1.203125 -4.578125 L 1.203125 -3.046875 C 1.335938 -3.179688 1.492188 -3.285156 1.671875 -3.359375 C 1.859375 -3.429688 2.0625 -3.46875 2.28125 -3.46875 Z M 2.28125 -3.46875 "/></g></g></g></svg>